<svg width="116" height="148" viewBox="0 0 116 148" fill="none" xmlns="http://www.w3.org/2000/svg">
<path d="M98.1341 101.022H78.1341V87.1911C81.7976 85.0974 84.9723 82.2687 87.4516 78.8889H90.6341C91.5416 78.8889 92.3782 78.405 92.8191 77.6248L99.2491 66.2387C103.432 58.8224 105.629 50.482 105.634 42.0008C105.62 18.8981 86.5701 0.180818 63.0841 0.194343C57.4182 0.197725 51.8101 1.31451 46.5891 3.47984C27.6766 11.3493 17.7541 33.16 24.0016 53.1336L29.7491 71.5113H20.6341C15.1113 71.5113 10.6341 75.9154 10.6341 81.3481C10.6404 83.4436 11.3329 85.4814 12.6091 87.1592C3.44599 90.1529 -1.51463 99.8871 1.5288 108.9C3.63662 115.142 9.17912 119.655 15.8066 120.526C16.9779 129.062 24.3776 135.436 33.1341 135.451H38.1341C47.7991 135.451 55.6341 127.743 55.6341 118.236C55.6341 108.729 47.7991 101.022 38.1341 101.022H30.6341V105.94H38.1341C45.0376 105.94 50.6341 111.445 50.6341 118.236C50.6341 125.027 45.0376 130.532 38.1341 130.532H33.1341C27.1963 130.525 22.0801 126.416 20.8841 120.695H33.1341V115.777H18.1341C11.2307 115.777 5.63412 110.272 5.63412 103.481C5.63412 96.6901 11.2307 91.1849 18.1341 91.1849H33.1341V86.2665H20.6341C17.8726 86.2665 15.6341 84.0646 15.6341 81.3481C15.6341 78.6316 17.8726 76.4297 20.6341 76.4297H33.1341C34.5148 76.43 35.6344 75.3292 35.6348 73.9711C35.6348 73.7258 35.5976 73.482 35.5241 73.2475L35.4766 73.1024C38.0319 79.0241 42.4741 83.9687 48.1341 87.1911V103.481H53.1341V89.4634C59.5966 91.7585 66.6716 91.7585 73.1341 89.4634V103.481C73.1341 104.839 74.2535 105.94 75.6341 105.94H92.7791C91.6426 110.27 87.6801 113.301 83.1341 113.318H60.6341V118.236H83.1341C90.4457 118.223 96.6845 113.031 97.9091 105.94H98.1341C105.034 105.948 110.626 111.449 110.634 118.236V142.828H15.6341V135.451H10.6341V145.287C10.6341 146.645 11.7535 147.747 13.1341 147.747H113.134C114.515 147.747 115.634 146.645 115.634 145.287V118.236C115.623 108.733 107.795 101.032 98.1341 101.022ZM30.6341 44.46V49.3784H33.1341V61.6744C33.1344 63.6344 33.3338 65.5892 33.7291 67.5101L28.7791 51.6876C23.2791 34.0945 31.9566 14.9102 48.5291 8.00969C67.6232 0.0873677 89.631 8.89132 97.6844 27.6738C99.6288 32.2083 100.632 37.0793 100.634 42.0008C100.631 49.6459 98.6523 57.1646 94.8841 63.8508L92.3291 68.3709C92.8582 66.1766 93.1285 63.9295 93.1341 61.6744V49.3784H95.6341V44.46H88.4416C84.9748 44.4557 81.961 42.1189 81.1466 38.8038L75.5391 19.204C75.2366 18.1432 74.2541 17.4097 73.1341 17.4088C72.017 17.4085 71.0354 18.1373 70.7291 19.1942L65.5766 37.0086C64.4648 41.3845 60.4694 44.456 55.8841 44.46H30.6341ZM63.1341 86.2665C49.3269 86.2665 38.1341 75.2563 38.1341 61.6744V49.3784H55.8841C62.7423 49.3944 68.7326 44.8197 70.4166 38.28L73.1316 28.8982L76.3241 40.063C77.6841 45.4231 82.5195 49.2269 88.1341 49.3538V61.6744C88.1341 75.2563 76.9413 86.2665 63.1341 86.2665Z" fill="#E1C28E"/>
</svg>
