<svg width="125" height="148" viewBox="0 0 125 148" fill="none" xmlns="http://www.w3.org/2000/svg">
<path d="M27.5212 101.023H47.5208V87.1922C38.2516 81.9281 32.5358 72.2046 32.5211 61.676V49.3802H30.0211V44.4619H37.2135C40.6803 44.4576 43.694 42.1208 44.5083 38.8058L50.1132 19.2063C50.4157 18.1446 51.3998 17.4108 52.5207 17.4111C53.6379 17.4108 54.6194 18.1397 54.9256 19.1965L60.0756 37.0106C61.1877 41.3873 65.1842 44.4588 69.7704 44.4619H95.0199V49.3802H92.5199V61.676C92.5053 72.2046 86.7894 81.9281 77.5202 87.1922V103.482C77.5202 104.134 77.2565 104.759 76.7877 105.22L64.288 117.516C63.3117 118.476 61.7293 118.476 60.753 117.516L48.9858 105.941H27.5212C20.6213 105.949 15.0295 111.449 15.0214 118.237V142.828H110.02V140.369H115.02V145.287C115.02 146.645 113.9 147.747 112.52 147.747H12.5214C11.1408 147.747 10.0215 146.645 10.0215 145.287V118.237C10.0324 108.734 17.861 101.034 27.5212 101.023ZM52.5207 102.464L62.5205 112.3L72.5203 102.464V89.4645C66.0579 91.7595 58.9831 91.7595 52.5207 89.4645V102.464ZM62.5205 86.2676C76.3274 86.2676 87.52 75.2576 87.52 61.676V49.3802H69.7704C62.9124 49.3962 56.9222 44.8215 55.2381 38.282L52.5257 28.9003L49.3307 40.0674C47.9689 45.4259 43.1346 49.228 37.521 49.3556V61.676C37.521 75.2576 48.7136 86.2676 62.5205 86.2676Z" fill="#E1C28E"/>
<path d="M90.02 101.022H97.5199V105.941H90.02C83.1167 105.941 77.5202 111.446 77.5202 118.237C77.5202 125.027 83.1167 130.532 90.02 130.532H102.52C106.662 130.532 110.02 127.229 110.02 123.155H115.02C115.011 129.942 109.42 135.443 102.52 135.451H90.02C80.3552 135.451 72.5203 127.744 72.5203 118.237C72.5203 108.729 80.3552 101.022 90.02 101.022Z" fill="#E1C28E"/>
<path d="M5.88767 90.6543C7.66232 89.0967 9.74104 87.9114 11.9969 87.1709V87.161C10.7207 85.4832 10.0282 83.4455 10.022 81.35C10.022 75.9174 14.4991 71.5134 20.0218 71.5134V43.115C19.6799 20.4833 37.5024 1.59418 60.471 0.244407C83.9156 -0.869593 103.839 16.9231 104.971 39.9848C105.004 40.657 105.02 41.3302 105.02 42.0031V71.5131C110.543 71.5131 115.02 75.9171 115.02 81.3497C115.014 83.4452 114.321 85.4829 113.045 87.1607C122.209 90.1824 127.147 99.9394 124.075 108.953C121.689 115.956 115.028 120.681 107.52 120.696H92.5204V115.778H107.52C114.423 115.778 120.02 110.273 120.02 103.482C120.02 96.6915 114.423 91.1864 107.52 91.1864H92.5204V86.268H105.02C107.782 86.268 110.02 84.0662 110.02 81.3497C110.02 78.6333 107.782 76.4314 105.02 76.4314H102.52C101.14 76.4314 100.02 75.3303 100.02 73.9722V42.0031C100.021 21.6308 83.2328 5.11508 62.5225 5.11416C61.916 5.11416 61.3094 5.12861 60.7035 5.1575C40.4061 6.39077 24.6864 23.1131 25.0217 43.1147V73.9722C25.0217 75.3303 23.9023 76.4314 22.5217 76.4314H20.0218C17.2603 76.4314 15.0219 78.6333 15.0219 81.3497C15.0219 84.0662 17.2603 86.268 20.0218 86.268H32.5215V91.1864H17.5218C10.6185 91.1864 5.02206 96.6915 5.02238 103.482C5.02238 106.507 6.15548 109.424 8.2045 111.679L4.47958 114.959C-1.95467 107.865 -1.32407 96.9832 5.88767 90.6543Z" fill="#E1C28E"/>
</svg>
