<svg width="106" height="148" viewBox="0 0 106 148" fill="none" xmlns="http://www.w3.org/2000/svg">
<path d="M0.744125 61.8542C1.68629 56.9427 5.55717 53.0812 10.5364 52.0852V43.1143C10.1946 20.4827 28.0171 1.59366 50.9857 0.243892C74.4303 -0.869795 94.3533 16.9228 95.4855 39.9844C95.5186 40.6566 95.5349 41.3298 95.5349 42.0027V52.0852C102.299 53.4418 106.665 59.9355 105.286 66.5893C104.272 71.4821 100.35 75.2858 95.3624 76.2144V76.2169C94.2258 83.4096 87.935 88.7173 80.5352 88.7266H75.5353V83.8083H80.5352C86.0579 83.8083 90.535 79.4042 90.535 73.9717C90.535 72.6136 91.6543 71.5125 93.0349 71.5125C97.177 71.5125 100.535 68.2096 100.535 64.1351C100.535 60.0606 97.177 56.7576 93.0349 56.7576C91.6543 56.7576 90.535 55.6565 90.535 54.2985V42.0027C90.5359 21.6305 73.7475 5.11485 53.0372 5.11393C52.4307 5.11393 51.8241 5.12838 51.2182 5.15727C30.9208 6.39054 15.201 23.1128 15.5364 43.1143V54.2985C15.5364 55.6565 14.417 56.7576 13.0364 56.7576C8.89429 56.7576 5.53654 60.0606 5.53654 64.1351C5.53654 68.2096 8.89429 71.5125 13.0364 71.5125C14.417 71.5125 15.5364 72.6136 15.5364 73.9717C15.5364 79.4042 20.0135 83.8083 25.5362 83.8083H30.5361V88.7266H25.5362C18.1363 88.7173 11.8455 83.4096 10.7089 76.2169C3.92532 74.9575 -0.536163 68.5271 0.744125 61.8542Z" fill="#E1C28E"/>
<path d="M18.0368 101.023H38.0364V87.1922C28.7672 81.9281 23.0514 72.2046 23.0367 61.676V49.3802H20.5367V44.4619H27.7291C31.1959 44.4576 34.2096 42.1208 35.024 38.8058L40.6289 19.2063C40.9314 18.1446 41.9154 17.4108 43.0363 17.4111C44.1504 17.4231 45.1269 18.1467 45.4463 19.1965L50.5962 37.0106C51.708 41.3858 55.7017 44.4567 60.286 44.4619H85.5355V49.3802H83.0356V61.676C83.0209 72.2046 77.3051 81.9281 68.0359 87.1922V101.023H88.0355C97.6956 101.033 105.524 108.734 105.535 118.237V145.287C105.535 146.645 104.416 147.747 103.035 147.747H3.03706C1.65646 147.747 0.537109 146.645 0.537109 145.287V118.237C0.548355 108.734 8.37665 101.034 18.0368 101.023ZM78.0357 61.676V49.3802H60.286C53.428 49.3962 47.4378 44.8215 45.7538 38.282L43.0413 28.9003L39.8464 40.0674C38.4845 45.4259 33.6502 49.228 28.0366 49.3556V61.676C28.0366 75.2576 39.2292 86.2676 53.0361 86.2676C66.8431 86.2676 78.0357 75.2576 78.0357 61.676ZM65.5359 105.941C64.1553 105.941 63.0359 104.84 63.0359 103.482V89.4645C56.5736 91.7595 49.4987 91.7595 43.0363 89.4645V103.482C43.0363 104.84 41.917 105.941 40.5364 105.941H35.9964C37.052 108.878 39.8695 110.846 43.0363 110.859H63.0359C66.2028 110.846 69.0202 108.878 70.0758 105.941H65.5359ZM5.53702 142.828H100.535V118.237C100.527 111.449 94.9354 105.949 88.0355 105.941H75.2857C74.0904 111.662 68.974 115.771 63.0359 115.778H43.0363C37.0983 115.771 31.9818 111.662 30.7865 105.941H18.0368C11.1369 105.949 5.54514 111.449 5.53702 118.237V142.828Z" fill="#E1C28E"/>
</svg>
