<svg width="20" height="27" viewBox="0 0 20 27" fill="none" xmlns="http://www.w3.org/2000/svg">
<g clip-path="url(#clip0)">
<path d="M11.3159 19.6764C12.6317 19.6764 13.9475 19.4175 15.2633 18.8997C16.5791 18.3819 17.6317 17.6052 18.6843 16.5696L16.3159 13.9806C15.2633 14.7573 14.737 15.2751 13.9475 15.534C13.158 16.0518 12.1054 16.0518 11.3159 16.0518C9.47381 16.0518 8.15802 15.534 7.10539 14.2395C6.05276 13.2039 5.26329 11.6505 5.26329 9.83819C5.26329 8.02589 5.7896 6.47249 6.84223 5.43689C7.89486 4.14239 9.47381 3.6246 11.0528 3.6246C11.8422 3.6246 12.6317 3.8835 13.4212 4.14239C14.2107 4.40129 15.0001 4.91909 15.5264 5.69579L17.8949 3.1068C17.3685 2.0712 16.3159 1.2945 15.0001 0.776699C13.9475 0.2589 12.6317 0 11.3159 0C8.42118 0 6.05276 1.0356 4.21065 2.8479C2.36855 4.66019 1.31592 6.99029 1.31592 9.83819C1.31592 12.6861 2.36855 15.0162 4.21065 16.8285C6.05276 18.6408 8.42118 19.6764 11.3159 19.6764Z" fill="#CA4A9B"/>
<path d="M20 22.7832H0V26.6667H20V22.7832Z" fill="#CA4A9B"/>
</g>
<defs>
<clipPath id="clip0">
<rect width="20" height="26.6667" fill="white"/>
</clipPath>
</defs>
</svg>
