<svg width="52" height="52" viewBox="0 0 52 52" fill="none" xmlns="http://www.w3.org/2000/svg">
<path fill-rule="evenodd" clip-rule="evenodd" d="M34.6107 19.2851L36.0255 19.4503L35.3895 20.7249C35.0794 21.3464 34.769 21.9679 34.4583 22.5894C34.4214 22.7211 34.3566 22.8365 34.2609 22.9867C34.2208 23.0495 34.0841 23.2492 34.0777 23.2588C34.0416 23.3129 34.0149 23.3556 33.9957 23.3898V25.7784C33.9957 31.8904 28.0807 35.7743 22.4948 35.7743C21.3517 35.7743 20.4833 35.7195 19.4889 35.5025C17.8524 35.1454 16.6345 34.4355 16.0772 33.1948L15.5034 31.9175L16.8978 31.7893C18.1592 31.6733 19.2529 31.433 20.0928 31.1112C17.787 30.7404 16.4948 29.7276 16.4948 27.8257V26.8257H17.4948C17.7145 26.8257 17.9126 26.8079 18.0898 26.7752C16.3592 25.7405 15.4924 24.0806 15.4924 21.7784C15.4922 21.6803 15.4922 21.6803 15.4917 21.5753C15.4852 20.4149 15.5475 19.7948 15.8652 19.0034C16.0688 18.4963 16.363 18.0267 16.7591 17.5965L17.5137 16.7769L18.2474 17.6153C20.6652 20.3785 23.0552 22.0548 25.4954 22.2576C25.5058 19.7079 27.4327 17.7784 29.9955 17.7784C31.1903 17.7784 32.274 18.2319 33.1257 19.0496C33.5918 19.1454 34.0869 19.2239 34.6107 19.2851Z" fill="#B8623D"/>
<circle cx="25.7588" cy="26.2754" r="24.5" stroke="#B8623D" stroke-width="2"/>
</svg>
