<svg width="52" height="52" viewBox="0 0 52 52" fill="none" xmlns="http://www.w3.org/2000/svg">
<path d="M23.452 25.6198L23.4521 25.6201C23.5943 25.863 24.0871 26.6647 24.8158 27.3101C25.5992 28.0031 26.2731 28.2947 26.6257 28.4473C26.6958 28.4776 26.7533 28.5025 26.7963 28.5239C26.9145 28.5827 26.9915 28.5984 27.0482 28.5914C27.1009 28.585 27.1529 28.5568 27.2167 28.4851C27.3651 28.3155 27.837 27.7655 27.9979 27.5239C28.0914 27.3837 28.1972 27.3083 28.3257 27.2934C28.4432 27.2799 28.563 27.3204 28.6741 27.3612C28.795 27.4042 29.1637 27.5773 29.5257 27.7511C29.8917 27.9268 30.2604 28.1079 30.3857 28.1702C30.4284 28.1915 30.4701 28.2116 30.5098 28.2307C30.5809 28.2649 30.6455 28.2961 30.6986 28.3255C30.7816 28.3715 30.8596 28.425 30.9052 28.504L30.8186 28.554M23.452 25.6198L26.0056 30.29C26.5998 30.5464 27.0637 30.6976 27.4246 30.811L27.3944 30.9064C27.3945 30.9064 27.3945 30.9064 27.3946 30.9064C28.0112 31.1016 28.5704 31.0732 29.0074 31.0071C29.265 30.9692 29.6467 30.812 29.988 30.5943C30.3268 30.3782 30.6516 30.0862 30.7663 29.7647C30.8723 29.4676 30.9257 29.1906 30.9447 28.9731C30.9542 28.8644 30.9553 28.7691 30.9496 28.6926C30.9444 28.6216 30.9325 28.5508 30.9051 28.5037L30.8186 28.554M23.452 25.6198C23.3907 25.516 23.3949 25.4524 23.412 25.4067C23.4329 25.351 23.4794 25.3019 23.5449 25.2367C23.6245 25.1574 23.719 25.0432 23.8092 24.9343C23.8491 24.8861 23.8881 24.8389 23.9247 24.7961C24.0373 24.6646 24.0884 24.5618 24.1499 24.4382C24.1618 24.4142 24.1742 24.3895 24.1874 24.3635C24.2929 24.1569 24.2341 23.9741 24.166 23.8385C24.137 23.7807 23.9994 23.4508 23.8401 23.0656C23.798 22.9639 23.7546 22.8589 23.7116 22.7548C23.5933 22.4682 23.4778 22.1887 23.4011 22.0063C23.2963 21.7541 23.1814 21.6232 23.0536 21.5632C22.9555 21.5172 22.853 21.5194 22.7898 21.5208C22.776 21.5211 22.764 21.5214 22.7544 21.5211C22.6081 21.5129 22.438 21.5129 22.2743 21.5129H22.2724C22.0843 21.5129 21.7842 21.5831 21.5341 21.8557C21.5193 21.8718 21.5028 21.8894 21.4847 21.9086C21.2224 22.1877 20.6368 22.8104 20.6368 23.9887C20.6368 24.6201 20.8677 25.2359 21.1097 25.71C21.3524 26.1856 21.6109 26.5272 21.6746 26.6112C21.6825 26.6216 21.6971 26.6425 21.7183 26.6728C22.0164 27.0981 23.6084 29.3694 25.9662 30.3819L23.452 25.6198ZM30.8186 28.554C30.8783 28.6566 30.8783 29.1534 30.6721 29.7311C30.4659 30.3089 29.4702 30.838 28.9927 30.9082L27.2916 28.5513C27.4381 28.3839 27.9156 27.8278 28.0811 27.5794C28.2466 27.331 28.4121 27.3715 28.64 27.4552C28.8679 27.5362 30.0915 28.1355 30.3411 28.2597C30.3871 28.2826 30.4303 28.3034 30.4705 28.3227C30.6482 28.4084 30.7677 28.4659 30.8186 28.554ZM15.737 26.1862V26.1863C15.737 27.9365 16.1928 29.6466 17.0589 31.1542L15.6565 36.2488L15.6105 36.4158L15.7782 36.3722L21.0224 35.0052C22.4826 35.7893 24.1248 36.2053 25.7967 36.2053H25.8022C31.3482 36.2053 35.8618 31.7145 35.8646 26.1944V26.1943C35.8618 23.5193 34.8176 21.0019 32.9186 19.1122C31.0169 17.2199 28.4901 16.1754 25.7994 16.1754C20.2534 16.1754 15.7398 20.6662 15.737 26.1862ZM21.257 33.0091L18.2881 33.7809L19.0779 30.9077L19.0897 30.8649L19.0658 30.8274L18.8679 30.5173C18.8679 30.5172 18.8679 30.5172 18.8678 30.5171C18.0479 29.2212 17.6164 27.7252 17.6164 26.1864C17.6191 21.701 21.2908 18.0493 25.8022 18.0493C27.9869 18.0493 30.0424 18.8973 31.5864 20.4364C33.1303 21.9754 33.9797 24.018 33.9798 26.1943C33.9771 30.6797 30.3081 34.3314 25.7994 34.3314H25.7967C24.3277 34.3314 22.8884 33.9393 21.6343 33.198C21.6342 33.198 21.6342 33.198 21.6342 33.1979L21.3331 33.0198L21.2973 32.9986L21.257 33.0091Z" fill="#B8623D" stroke="#B8623D" stroke-width="0.2"/>
<circle cx="25.7588" cy="26.2754" r="24.5" stroke="#B8623D" stroke-width="2"/>
</svg>
