<svg width="52" height="52" viewBox="0 0 52 52" fill="none" xmlns="http://www.w3.org/2000/svg">
<path fill-rule="evenodd" clip-rule="evenodd" d="M17.7754 16.5034H33.7754C34.88 16.5034 35.7754 17.3988 35.7754 18.5034V34.5034C35.7754 35.608 34.88 36.5034 33.7754 36.5034H17.7754C16.6708 36.5034 15.7754 35.608 15.7754 34.5034V18.5034C15.7754 17.3988 16.6708 16.5034 17.7754 16.5034Z" fill="#B8623D"/>
<path fill-rule="evenodd" clip-rule="evenodd" d="M25.2275 24.9556C25.7106 24.6617 26.2576 24.5034 26.7754 24.5034H27.7754C29.1693 24.5034 30.7754 25.6506 30.7754 27.5034V31.5034H28.7754V27.5034C28.7754 26.9277 28.1814 26.5034 27.7754 26.5034H26.7754C26.3693 26.5034 25.7754 26.9277 25.7754 27.5034V31.5034H23.7754V24.5034H24.7754L25.2275 24.9556Z" fill="white"/>
<path fill-rule="evenodd" clip-rule="evenodd" d="M21.7754 23.5034C22.3277 23.5034 22.7754 23.0557 22.7754 22.5034C22.7754 21.9511 22.3277 21.5034 21.7754 21.5034C21.2231 21.5034 20.7754 21.9511 20.7754 22.5034C20.7754 23.0557 21.2231 23.5034 21.7754 23.5034Z" fill="white"/>
<path fill-rule="evenodd" clip-rule="evenodd" d="M22.7754 31.5034H20.7754V24.5034H22.7754V31.5034Z" fill="white"/>
<circle cx="25.7588" cy="26.2754" r="24.5" stroke="#B8623D" stroke-width="2"/>
</svg>
