<svg width="24" height="19" viewBox="0 0 24 19" fill="none" xmlns="http://www.w3.org/2000/svg">
<path d="M21.2857 1H2.95472C1.87824 1 1 1.87728 1 2.95472V15.9862C1 17.06 1.87433 17.9409 2.95472 17.9409H21.2857C22.3595 17.9409 23.2404 17.0666 23.2404 15.9862V2.95472C23.2404 1.88093 22.3661 1 21.2857 1ZM21.0158 2.30315L12.1616 11.1573L3.23095 2.30315H21.0158ZM2.30315 15.7164V3.21835L8.57907 9.44045L2.30315 15.7164ZM3.22461 16.6378L9.50448 10.3579L11.7049 12.5395C11.9597 12.792 12.3707 12.7912 12.6244 12.5375L14.7699 10.3919L21.0158 16.6378H3.22461ZM21.9373 15.7163L15.6914 9.47046L21.9373 3.22456V15.7163Z" fill="#C8A97B" stroke="#C8A97B" stroke-width="0.3"/>
</svg>
