<svg width="23" height="23" viewBox="0 0 23 23" fill="none" xmlns="http://www.w3.org/2000/svg">
<path fill-rule="evenodd" clip-rule="evenodd" d="M19.0016 3.2531C16.9087 1.15686 14.1283 0 11.1669 0C5.06327 0 0.0965007 4.9748 0.0934851 11.0883C0.0934851 13.0426 0.60313 14.9516 1.57115 16.631L0 22.376L5.87147 20.8355C7.48785 21.7175 9.3093 22.1857 11.1639 22.1857H11.17C17.2736 22.1857 22.2404 17.2109 22.2434 11.0974C22.2404 8.13426 21.0914 5.34632 19.0016 3.2531ZM11.1669 20.313H11.1639C9.51135 20.313 7.89195 19.869 6.48063 19.0293L6.14589 18.8299L2.6598 19.7421L3.58862 16.341L3.36848 15.9937C2.44569 14.5257 1.96017 12.8312 1.96017 11.0883C1.96319 6.00781 6.09462 1.87272 11.17 1.87272C13.6277 1.87272 15.9407 2.83325 17.6777 4.57609C19.4147 6.31893 20.3707 8.63265 20.3707 11.0974C20.3677 16.1779 16.2393 20.313 11.1669 20.313ZM16.2151 13.4081C15.9377 13.2691 14.5776 12.5986 14.3243 12.508C14.071 12.4143 13.8871 12.369 13.7031 12.6469C13.5191 12.9248 12.9884 13.547 12.8255 13.7343C12.6627 13.9186 12.5029 13.9427 12.2254 13.8038C11.948 13.6648 11.0584 13.3718 9.99989 12.4294C9.17662 11.6955 8.62174 10.7863 8.46191 10.5114C8.29906 10.2335 8.44381 10.0855 8.58253 9.94657C8.70617 9.82273 8.85997 9.62338 8.99869 9.46027C9.13741 9.29716 9.18265 9.18238 9.27613 8.99813C9.36962 8.81388 9.32137 8.65077 9.25201 8.51183C9.18265 8.37288 8.63078 7.01063 8.39858 6.45485C8.17542 5.91418 7.94623 5.98667 7.77736 5.98063C7.61753 5.97157 7.43056 5.97157 7.2466 5.97157C7.06265 5.97157 6.76108 6.04104 6.50777 6.31893C6.25445 6.59682 5.53974 7.26737 5.53974 8.62963C5.53974 9.99188 6.53189 11.3118 6.67061 11.4961C6.80933 11.6804 8.62174 14.4804 11.3961 15.6795C12.0566 15.9665 12.5722 16.1356 12.9733 16.2625C13.6368 16.4739 14.2399 16.4437 14.7164 16.3712C15.2471 16.2927 16.3539 15.7007 16.583 15.0543C16.8122 14.4079 16.8122 13.8521 16.7459 13.7373C16.6765 13.6165 16.4926 13.547 16.2151 13.4081Z" fill="#C8A97B"/>
</svg>
