<svg width="24" height="24" viewBox="0 0 24 24" fill="none" xmlns="http://www.w3.org/2000/svg">
<path d="M18.5863 14.7979C18.1303 14.3232 17.5803 14.0693 16.9974 14.0693C16.4192 14.0693 15.8645 14.3185 15.3898 14.7932L13.9043 16.274C13.7821 16.2082 13.6599 16.1471 13.5423 16.086C13.3731 16.0014 13.2133 15.9214 13.077 15.8368C11.6855 14.9531 10.421 13.8014 9.20817 12.3112C8.62057 11.5685 8.2257 10.9433 7.93895 10.3087C8.32442 9.9561 8.68168 9.58944 9.02954 9.23688C9.16117 9.10525 9.29279 8.96893 9.42441 8.83731C10.4116 7.85013 10.4116 6.57151 9.42441 5.58434L8.14109 4.30101C7.99536 4.15529 7.84494 4.00486 7.70391 3.85444C7.42186 3.56299 7.12571 3.26213 6.82016 2.98008C6.36418 2.5288 5.81888 2.28906 5.24538 2.28906C4.67188 2.28906 4.11718 2.5288 3.6471 2.98008C3.6424 2.98478 3.6424 2.98478 3.6377 2.98948L2.03942 4.60187C1.43772 5.20357 1.09456 5.9369 1.01934 6.78775C0.906523 8.16039 1.31079 9.43901 1.62105 10.2758C2.38258 12.33 3.52018 14.2339 5.21718 16.274C7.27614 18.7325 9.75347 20.674 12.5834 22.0419C13.6646 22.5543 15.1077 23.1607 16.7201 23.2641C16.8188 23.2688 16.9222 23.2735 17.0162 23.2735C18.1021 23.2735 19.0141 22.8834 19.7286 22.1077C19.7333 22.0983 19.7427 22.0936 19.7474 22.0842C19.9919 21.7881 20.2739 21.5201 20.5701 21.2334C20.7722 21.0406 20.979 20.8385 21.1812 20.627C21.6466 20.1428 21.891 19.5787 21.891 19.0005C21.891 18.4176 21.6418 17.8582 21.1671 17.3881L18.5863 14.7979ZM20.2692 19.7479C20.2645 19.7479 20.2645 19.7526 20.2692 19.7479C20.0859 19.9453 19.8978 20.124 19.6957 20.3214C19.3902 20.6129 19.0799 20.9184 18.7885 21.2616C18.3137 21.7693 17.7543 22.009 17.0209 22.009C16.9504 22.009 16.8752 22.009 16.8047 22.0043C15.4086 21.915 14.1111 21.3697 13.1381 20.9043C10.4774 19.6163 8.14109 17.7877 6.19965 15.4702C4.59667 13.5381 3.52488 11.7518 2.81506 9.83388C2.37788 8.66338 2.21805 7.75142 2.28857 6.89117C2.33557 6.34117 2.54711 5.88519 2.93728 5.49502L4.54026 3.89204C4.7706 3.6758 5.01504 3.55828 5.25478 3.55828C5.55094 3.55828 5.79068 3.73692 5.9411 3.88734C5.9458 3.89204 5.95051 3.89674 5.95521 3.90144C6.24196 4.16939 6.5146 4.44674 6.80135 4.74289C6.94708 4.89332 7.09751 5.04374 7.24793 5.19887L8.53126 6.4822C9.02954 6.98048 9.02954 7.44116 8.53126 7.93945C8.39493 8.07577 8.26331 8.2121 8.12699 8.34372C7.73212 8.74799 7.35605 9.12406 6.94708 9.49072C6.93768 9.50012 6.92828 9.50482 6.92358 9.51423C6.51931 9.9185 6.59452 10.3134 6.67913 10.5813C6.68383 10.5954 6.68853 10.6095 6.69324 10.6236C7.02699 11.4322 7.49708 12.1937 8.2116 13.101L8.2163 13.1057C9.51373 14.7039 10.8817 15.9497 12.3906 16.9039C12.5834 17.0261 12.7808 17.1249 12.9688 17.2189C13.1381 17.3035 13.2979 17.3834 13.4342 17.468C13.453 17.4774 13.4718 17.4915 13.4906 17.5009C13.6505 17.5808 13.8009 17.6184 13.956 17.6184C14.3462 17.6184 14.5906 17.374 14.6705 17.2941L16.2782 15.6864C16.438 15.5266 16.6919 15.3338 16.988 15.3338C17.2795 15.3338 17.5192 15.5172 17.665 15.677C17.6697 15.6817 17.6697 15.6817 17.6744 15.6864L20.2645 18.2766C20.7487 18.756 20.7487 19.2496 20.2692 19.7479Z" fill="#C8A97B" stroke="#C8A97B" stroke-width="0.5"/>
<path d="M13.0204 6.29798C14.252 6.50481 15.3708 7.08771 16.264 7.98087C17.1571 8.87403 17.7353 9.99282 17.9469 11.2244C17.9986 11.5347 18.2665 11.7509 18.5721 11.7509C18.6097 11.7509 18.6426 11.7462 18.6802 11.7415C19.0281 11.6851 19.2584 11.3561 19.202 11.0082C18.9481 9.51804 18.243 8.1595 17.1665 7.08301C16.09 6.00653 14.7315 5.3014 13.2414 5.04756C12.8935 4.99115 12.5691 5.22149 12.508 5.56465C12.4469 5.90781 12.6726 6.24157 13.0204 6.29798Z" fill="#C8A97B" stroke="#C8A97B" stroke-width="0.5"/>
<path d="M23.2307 10.825C22.8123 8.37116 21.6559 6.13827 19.879 4.36136C18.1021 2.58445 15.8692 1.42805 13.4153 1.00967C13.0722 0.948564 12.7478 1.18361 12.6867 1.52677C12.6303 1.87463 12.8606 2.19898 13.2085 2.26009C15.3991 2.63146 17.3969 3.67034 18.9858 5.25452C20.5747 6.84339 21.6089 8.84124 21.9802 11.0318C22.0319 11.3421 22.2999 11.5583 22.6054 11.5583C22.6431 11.5583 22.676 11.5536 22.7136 11.5489C23.0567 11.4972 23.2918 11.1682 23.2307 10.825Z" fill="#C8A97B" stroke="#C8A97B" stroke-width="0.5"/>
</svg>
