<svg width="20" height="27" viewBox="0 0 20 27" fill="none" xmlns="http://www.w3.org/2000/svg">
<path d="M10 0C4.486 0 0 4.486 0 10C0 13.5596 1.08282 14.9871 6.2862 21.8467C7.18944 23.0374 8.21323 24.387 9.38462 25.9487C9.5299 26.1424 9.7579 26.2564 10.0001 26.2564C10.2422 26.2564 10.4702 26.1424 10.6154 25.9486C11.7799 24.3953 12.7993 23.0508 13.6987 21.8646C18.9146 14.9851 20 13.5534 20 10C20 4.486 15.514 0 10 0ZM12.4728 20.9351C11.7341 21.9094 10.9147 22.9902 9.99985 24.2064C9.07877 22.9824 8.25467 21.896 7.5119 20.9168C2.45046 14.2444 1.53846 13.0421 1.53846 10C1.53846 5.33431 5.33431 1.53846 10 1.53846C14.6657 1.53846 18.4615 5.33431 18.4615 10C18.4615 13.0362 17.5472 14.2422 12.4728 20.9351Z" fill="#C8A97B"/>
<path d="M9.99985 4.61523C7.03077 4.61523 4.61523 7.03077 4.61523 9.99985C4.61523 12.9689 7.03077 15.3845 9.99985 15.3845C12.9689 15.3845 15.3845 12.9689 15.3845 9.99985C15.3845 7.03077 12.9689 4.61523 9.99985 4.61523ZM9.99985 13.846C7.87908 13.846 6.1537 12.1206 6.1537 9.99985C6.1537 7.87908 7.87908 6.1537 9.99985 6.1537C12.1206 6.1537 13.846 7.87908 13.846 9.99985C13.846 12.1206 12.1206 13.846 9.99985 13.846Z" fill="#C8A97B"/>
</svg>
