<svg width="32" height="32" viewBox="0 0 32 32" fill="none" xmlns="http://www.w3.org/2000/svg">
<path d="M24.7221 19.6115C24.107 18.971 23.3652 18.6286 22.5789 18.6286C21.799 18.6286 21.0507 18.9647 20.4103 19.6051L18.4066 21.6025C18.2417 21.5138 18.0768 21.4313 17.9183 21.3489C17.69 21.2348 17.4744 21.127 17.2906 21.0128C15.4136 19.8207 13.7079 18.2672 12.072 16.2571C11.2794 15.2553 10.7467 14.4119 10.3599 13.5559C10.8799 13.0803 11.3618 12.5857 11.831 12.1102C12.0086 11.9326 12.1861 11.7487 12.3637 11.5712C13.6953 10.2396 13.6953 8.51486 12.3637 7.18327L10.6326 5.4522C10.436 5.25563 10.2331 5.05272 10.0429 4.84981C9.66243 4.45667 9.26295 4.05085 8.85079 3.6704C8.23572 3.06167 7.50017 2.73828 6.72658 2.73828C5.95299 2.73828 5.20476 3.06167 4.57067 3.6704C4.56433 3.67674 4.56433 3.67674 4.55799 3.68308L2.40207 5.85802C1.59043 6.66965 1.12755 7.65884 1.02609 8.80654C0.87391 10.6581 1.41923 12.3828 1.83773 13.5115C2.86496 16.2825 4.39946 18.8506 6.68854 21.6025C9.46586 24.9188 12.8075 27.5376 16.6248 29.3828C18.0832 30.074 20.0298 30.892 22.2048 31.0315C22.3379 31.0378 22.4774 31.0442 22.6042 31.0442C24.069 31.0442 25.2991 30.5179 26.263 29.4716C26.2693 29.4589 26.282 29.4526 26.2883 29.4399C26.6181 29.0404 26.9985 28.679 27.398 28.2922C27.6706 28.0322 27.9496 27.7596 28.2223 27.4742C28.8501 26.8211 29.1798 26.0602 29.1798 25.2803C29.1798 24.494 28.8437 23.7394 28.2033 23.1053L24.7221 19.6115ZM26.9922 26.2885C26.9858 26.2885 26.9858 26.2948 26.9922 26.2885C26.7449 26.5548 26.4912 26.7957 26.2186 27.0621C25.8064 27.4552 25.3879 27.8674 24.9948 28.3302C24.3543 29.0151 23.5998 29.3385 22.6106 29.3385C22.5155 29.3385 22.414 29.3384 22.3189 29.3321C20.4357 29.2116 18.6856 28.4761 17.373 27.8483C13.784 26.1109 10.6326 23.6443 8.01379 20.5182C5.85153 17.9121 4.4058 15.5026 3.44832 12.9155C2.85862 11.3366 2.64303 10.1064 2.73814 8.94604C2.80155 8.20416 3.08689 7.58909 3.61319 7.06279L5.77544 4.90054C6.08615 4.60885 6.41588 4.45033 6.73926 4.45033C7.13874 4.45033 7.46213 4.69129 7.66504 4.89419C7.67138 4.90054 7.67772 4.90688 7.68406 4.91322C8.07086 5.27465 8.43863 5.64876 8.82543 6.04824C9.02199 6.25115 9.2249 6.45406 9.42781 6.66331L11.1589 8.39438C11.831 9.06652 11.831 9.68793 11.1589 10.3601C10.975 10.544 10.7975 10.7278 10.6136 10.9054C10.0809 11.4507 9.57365 11.958 9.02199 12.4526C9.00931 12.4653 8.99663 12.4716 8.99029 12.4843C8.44497 13.0296 8.54642 13.5622 8.66056 13.9237C8.6669 13.9427 8.67324 13.9617 8.67958 13.9807C9.12979 15.0714 9.76388 16.0986 10.7277 17.3224L10.734 17.3287C12.4841 19.4847 14.3293 21.165 16.3648 22.4522C16.6248 22.6171 16.8911 22.7502 17.1447 22.8771C17.373 22.9912 17.5886 23.099 17.7725 23.2131C17.7978 23.2258 17.8232 23.2448 17.8486 23.2575C18.0641 23.3653 18.2671 23.416 18.4763 23.416C19.0026 23.416 19.3323 23.0863 19.4401 22.9785L21.6087 20.8099C21.8243 20.5943 22.1667 20.3343 22.5662 20.3343C22.9593 20.3343 23.2827 20.5816 23.4793 20.7972C23.4856 20.8036 23.4856 20.8036 23.492 20.8099L26.9858 24.3038C27.6389 24.9505 27.6389 25.6163 26.9922 26.2885Z" fill="#C8A97B" stroke="#C8A97B"/>
<path d="M17.2144 8.14639C18.8757 8.42539 20.3848 9.21166 21.5896 10.4164C22.7944 11.6212 23.5743 13.1304 23.8597 14.7917C23.9294 15.2102 24.2909 15.5019 24.703 15.5019C24.7537 15.5019 24.7981 15.4955 24.8489 15.4892C25.3181 15.4131 25.6288 14.9692 25.5527 14.5C25.2103 12.4899 24.2591 10.6574 22.8071 9.20532C21.355 7.75325 19.5225 6.80211 17.5124 6.4597C17.0432 6.38361 16.6057 6.69432 16.5232 7.1572C16.4408 7.62009 16.7452 8.0703 17.2144 8.14639Z" fill="#C8A97B" stroke="#C8A97B"/>
<path d="M30.9871 14.2529C30.4227 10.9429 28.8629 7.931 26.466 5.53413C24.0691 3.13726 21.0572 1.57739 17.7472 1.01305C17.2843 0.930619 16.8468 1.24766 16.7644 1.71055C16.6883 2.17978 16.999 2.6173 17.4682 2.69974C20.4231 3.20067 23.118 4.60201 25.2612 6.7389C27.4045 8.88213 28.7995 11.577 29.3004 14.5319C29.3701 14.9504 29.7316 15.2421 30.1437 15.2421C30.1945 15.2421 30.2388 15.2357 30.2896 15.2294C30.7525 15.1596 31.0695 14.7158 30.9871 14.2529Z" fill="#C8A97B" stroke="#C8A97B"/>
</svg>
