<svg width="31" height="30" viewBox="0 0 31 30" fill="none" xmlns="http://www.w3.org/2000/svg">
<path fill-rule="evenodd" clip-rule="evenodd" d="M25.6312 4.27797C22.8081 1.52132 19.0576 0 15.063 0C6.82982 0 0.130169 6.54208 0.126102 14.5817C0.126102 17.1516 0.813558 19.662 2.11932 21.8705L0 29.4255L7.91999 27.3997C10.1003 28.5596 12.5573 29.1752 15.059 29.1752H15.0671C23.3003 29.1752 30 22.6331 30.004 14.5936C30 10.6969 28.4501 7.03066 25.6312 4.27797ZM15.063 26.7125H15.059C12.8298 26.7125 10.6454 26.1286 8.74168 25.0244L8.29016 24.7622L3.58779 25.9618L4.84067 21.4892L4.54372 21.0324C3.29898 19.1019 2.64406 16.8736 2.64406 14.5817C2.64813 7.90055 8.22101 2.46272 15.0671 2.46272C18.3823 2.46272 21.5023 3.72585 23.8454 6.01776C26.1884 8.30968 27.4779 11.3523 27.4779 14.5936C27.4739 21.2747 21.9051 26.7125 15.063 26.7125ZM21.8725 17.6322C21.4983 17.4495 19.6637 16.5677 19.322 16.4486C18.9803 16.3254 18.7322 16.2658 18.484 16.6313C18.2359 16.9967 17.52 17.815 17.3003 18.0612C17.0807 18.3035 16.8651 18.3353 16.4908 18.1526C16.1166 17.9699 14.9166 17.5846 13.4888 16.3453C12.3783 15.3801 11.6298 14.1844 11.4142 13.823C11.1946 13.4575 11.3898 13.2629 11.5769 13.0802C11.7437 12.9173 11.9512 12.6552 12.1383 12.4407C12.3254 12.2262 12.3864 12.0752 12.5125 11.833C12.6386 11.5907 12.5735 11.3762 12.48 11.1934C12.3864 11.0107 11.642 9.21929 11.3288 8.48842C11.0278 7.77741 10.7186 7.87275 10.4908 7.8648C10.2752 7.85288 10.023 7.85288 9.7749 7.85288C9.52677 7.85288 9.11999 7.94424 8.77829 8.30968C8.4366 8.67511 7.47253 9.55693 7.47253 11.3484C7.47253 13.1398 8.81084 14.8756 8.99795 15.1179C9.18507 15.3602 11.6298 19.0424 15.3722 20.6193C16.263 20.9966 16.9586 21.2191 17.4996 21.3859C18.3946 21.664 19.2081 21.6242 19.8508 21.5289C20.5668 21.4256 22.0596 20.6471 22.3688 19.7971C22.6779 18.947 22.6779 18.2161 22.5884 18.0652C22.4949 17.9063 22.2468 17.815 21.8725 17.6322Z" fill="#C8A97B"/>
</svg>
