<svg width="31" height="30" viewBox="0 0 31 30" fill="none" xmlns="http://www.w3.org/2000/svg">
<path fill-rule="evenodd" clip-rule="evenodd" d="M25.6312 4.3615C22.8081 1.55103 19.0576 0 15.063 0C6.82982 0 0.130169 6.66982 0.126102 14.8664C0.126102 17.4865 0.813558 20.0459 2.11932 22.2975L0 30L7.91999 27.9347C10.1003 29.1172 12.5573 29.7449 15.059 29.7449H15.0671C23.3003 29.7449 30 23.0751 30.004 14.8785C30 10.9058 28.4501 7.16793 25.6312 4.3615ZM15.063 27.2341H15.059C12.8298 27.2341 10.6454 26.6388 8.74168 25.513L8.29016 25.2457L3.58779 26.4687L4.84067 21.9087L4.54372 21.443C3.29898 19.4749 2.64406 17.203 2.64406 14.8664C2.64813 8.05481 8.22101 2.5108 15.0671 2.5108C18.3823 2.5108 21.5023 3.7986 23.8454 6.13526C26.1884 8.47192 27.4779 11.574 27.4779 14.8785C27.4739 21.6901 21.9051 27.2341 15.063 27.2341ZM21.8725 17.9765C21.4983 17.7902 19.6637 16.8912 19.322 16.7697C18.9803 16.6442 18.7322 16.5834 18.484 16.956C18.2359 17.3286 17.52 18.1628 17.3003 18.4139C17.0807 18.6609 16.8651 18.6933 16.4908 18.507C16.1166 18.3207 14.9166 17.9279 13.4888 16.6644C12.3783 15.6803 11.6298 14.4614 11.4142 14.0929C11.1946 13.7203 11.3898 13.5219 11.5769 13.3356C11.7437 13.1695 11.9512 12.9023 12.1383 12.6836C12.3254 12.4649 12.3864 12.311 12.5125 12.064C12.6386 11.817 12.5735 11.5983 12.48 11.412C12.3864 11.2257 11.642 9.3993 11.3288 8.65416C11.0278 7.92927 10.7186 8.02646 10.4908 8.01836C10.2752 8.00621 10.023 8.00621 9.7749 8.00621C9.52677 8.00621 9.11999 8.09935 8.77829 8.47192C8.4366 8.84449 7.47253 9.74352 7.47253 11.5699C7.47253 13.3963 8.81084 15.166 8.99795 15.4131C9.18507 15.6601 11.6298 19.4141 15.3722 21.0219C16.263 21.4066 16.9586 21.6334 17.4996 21.8035C18.3946 22.0869 19.2081 22.0464 19.8508 21.9492C20.5668 21.844 22.0596 21.0502 22.3688 20.1836C22.6779 19.317 22.6779 18.5718 22.5884 18.4179C22.4949 18.2559 22.2468 18.1628 21.8725 17.9765Z" fill="white"/>
</svg>
