<svg width="32" height="32" viewBox="0 0 32 32" fill="none" xmlns="http://www.w3.org/2000/svg">
<path d="M4.72984 27.4895L9.26486 26.3029L9.30536 26.2923L9.34134 26.3137L9.79283 26.5826C9.79284 26.5826 9.79285 26.5826 9.79286 26.5826C11.681 27.706 13.8477 28.3001 16.059 28.3001H16.0631C22.8497 28.3001 28.3739 22.7672 28.378 15.9692C28.3779 12.6709 27.0989 9.57539 24.7746 7.24326C22.4503 4.91116 19.3558 3.62611 16.0671 3.62611C9.27634 3.62611 3.7481 9.15906 3.74407 15.9571C3.74408 18.2892 4.39369 20.5563 5.62819 22.5203L4.72984 27.4895ZM4.72984 27.4895L5.93715 23.0687L5.94878 23.0261L5.92514 22.9888L5.62839 22.5206L4.72984 27.4895ZM12.5005 15.1282L12.5007 15.1285C12.7147 15.4965 13.4568 16.712 14.5554 17.6914C15.7368 18.7432 16.7555 19.1867 17.283 19.4163C17.3872 19.4617 17.4723 19.4987 17.5356 19.5305C17.7162 19.6209 17.8422 19.6495 17.9413 19.6372C18.0365 19.6255 18.1247 19.5738 18.2251 19.4602C18.4466 19.2055 19.1571 18.3722 19.4007 18.0042C19.5353 17.8008 19.6825 17.6986 19.8564 17.6784C20.0193 17.6595 20.1885 17.716 20.3564 17.778C20.5343 17.8418 21.0841 18.1015 21.6286 18.3646C22.1771 18.6296 22.7298 18.9028 22.9173 18.9967C22.983 19.0296 23.0463 19.0603 23.106 19.0893C23.2115 19.1404 23.3061 19.1863 23.3845 19.23C23.5078 19.2988 23.6141 19.374 23.6752 19.4804M12.5005 15.1282L23.5885 19.5302M12.5005 15.1282C12.4026 14.9611 12.4046 14.8489 12.4368 14.7625M12.5005 15.1282L12.4368 14.7625M23.6752 19.4804L23.5885 19.5302M23.6752 19.4804C23.6751 19.4804 23.6751 19.4803 23.675 19.4802L23.5885 19.5302M23.6752 19.4804C23.7098 19.5406 23.7273 19.6367 23.7351 19.7432C23.7433 19.8553 23.7418 19.9963 23.7278 20.1582C23.6996 20.4822 23.6205 20.8959 23.4631 21.3401C23.2969 21.8086 22.8223 22.2415 22.3164 22.5663C21.8082 22.8926 21.2425 23.1262 20.8656 23.182M23.5885 19.5302C23.678 19.6851 23.678 20.4347 23.3688 21.3067C23.0597 22.1786 21.5668 22.9771 20.8508 23.0831M20.8656 23.182C20.8657 23.182 20.8658 23.182 20.8659 23.1819L20.8508 23.0831M20.8656 23.182C20.2145 23.281 19.3842 23.3232 18.4695 23.0317M20.8656 23.182C20.8656 23.182 20.8655 23.182 20.8655 23.182L20.8508 23.0831M20.8508 23.0831L18.4695 23.0317M18.4695 23.0317L18.4997 22.9364L18.4693 23.0317C18.4694 23.0317 18.4694 23.0317 18.4695 23.0317ZM18.4695 23.0317C17.9271 22.8602 17.2279 22.6308 16.3325 22.2418L18.4695 23.0317ZM12.4368 14.7625C12.4726 14.6661 12.5511 14.5843 12.6477 14.4876M12.4368 14.7625L12.6477 14.4876M12.6477 14.4876C12.7653 14.3697 12.9041 14.2009 13.0386 14.0374M12.6477 14.4876L13.0386 14.0374M13.0386 14.0374C13.0988 13.9641 13.1583 13.8918 13.2145 13.8257M13.0386 14.0374L13.2145 13.8257M13.2145 13.8257C13.379 13.6323 13.4528 13.4829 13.5448 13.2969M13.2145 13.8257L13.5448 13.2969M13.5448 13.2969C13.5628 13.2605 13.5815 13.2226 13.6017 13.1828M13.5448 13.2969L13.6017 13.1828M13.6017 13.1828C13.749 12.8926 13.6687 12.6357 13.5695 12.4369M13.6017 13.1828L13.5695 12.4369M13.5695 12.4369C13.5248 12.3475 13.3175 11.8468 13.0793 11.2671M13.5695 12.4369L13.0793 11.2671M13.0793 11.2671C13.0162 11.1135 12.9511 10.9549 12.8866 10.7978M13.0793 11.2671L12.8866 10.7978M12.8866 10.7978C12.7091 10.3653 12.5361 9.94379 12.4212 9.66857M12.8866 10.7978L12.4212 9.66857M12.4212 9.66857C12.2664 9.29356 12.1007 9.10921 11.9251 9.02623C11.7902 8.96251 11.6528 8.9652 11.557 8.96708C11.5338 8.96753 11.5131 8.96794 11.4954 8.96735C11.4951 8.96734 11.4947 8.96733 11.4944 8.96731L11.4908 9.06725C11.2753 9.05503 11.0231 9.05503 10.7749 9.05503C10.5268 9.05503 10.12 9.14874 9.77831 9.52358C9.75606 9.54798 9.73118 9.57463 9.7041 9.60363C9.31518 10.0201 8.47254 10.9225 8.47254 12.6405C8.47254 14.478 9.81085 16.2585 9.99797 16.507C10.0106 16.5239 10.0336 16.5568 10.0666 16.6042L12.4212 9.66857ZM1.0261 15.957V15.957C1.0261 18.5965 1.71081 21.1754 3.01189 23.4472L0.903542 31.1565L0.857855 31.3236L1.02538 31.2796L8.90704 29.2118C11.0933 30.3972 13.5538 31.0262 16.059 31.0262H16.0671C24.3557 31.0262 31.1 24.2708 31.1041 15.9693V15.9691C31.1 11.9459 29.5397 8.15982 26.702 5.31744C23.8602 2.47111 20.0843 0.9 16.0631 0.9C7.77444 0.9 1.0302 7.65541 1.0261 15.957Z" fill="#C8A97B" stroke="#C8A97B" stroke-width="0.2"/>
</svg>
