<svg width="252" height="49" viewBox="0 0 252 49" fill="none" xmlns="http://www.w3.org/2000/svg">
<path d="M56.8861 14.9374C55.0531 10.5465 52.0119 6.8279 48.1584 4.20179C44.3257 1.55466 39.6598 0.0210089 34.6815 0C31.3487 0 28.1617 0.672286 25.2664 1.8908C20.9129 3.73959 17.226 6.8069 14.6223 10.6935C11.9977 14.5802 10.4771 19.2652 10.4563 24.3073C10.4563 27.6688 11.1229 30.8831 12.331 33.8034C14.164 38.1942 17.2052 41.9128 21.0587 44.5389C24.9122 47.1861 29.5573 48.7197 34.5565 48.7407C37.8893 48.7407 41.0762 48.0684 43.9716 46.8499C48.325 45.0011 52.0119 41.9338 54.6157 38.0472C57.2402 34.1605 58.7608 29.4755 58.7816 24.4334C58.7816 21.072 58.1151 17.8576 56.8861 14.9374ZM51.6162 31.6605C50.1997 35.0009 47.846 37.8371 44.9089 39.8329C41.9511 41.8288 38.41 42.9843 34.5773 42.9843C32.0152 42.9843 29.599 42.4591 27.391 41.4926C24.079 40.064 21.267 37.69 19.2882 34.7278C17.5801 32.1647 16.497 29.1604 16.2262 25.925C16.6011 26.2822 17.101 26.4923 17.6426 26.4923C18.8091 26.4923 19.7673 25.5469 19.7673 24.3704C19.7673 23.1939 18.8299 22.2275 17.6634 22.2275C17.101 22.2275 16.6011 22.4375 16.2262 22.7947C16.3928 20.7778 16.8719 18.845 17.6218 17.0593C19.0382 13.7188 21.392 10.8826 24.329 8.88678C27.2869 6.89093 30.8279 5.73544 34.6606 5.73544C37.2227 5.73544 39.639 6.26066 41.8469 7.22707C45.1589 8.65568 47.9709 11.0297 49.9498 13.992C51.9286 16.9752 53.0743 20.5467 53.0743 24.4124C53.0743 26.9965 52.5535 29.4335 51.6162 31.6605Z" fill="#CAA977"/>
<path d="M34.6197 19.3701C31.8702 19.3701 29.6622 21.5971 29.6414 24.3492C29.6414 27.1224 31.8493 29.3494 34.578 29.3704C37.3068 29.3704 39.5356 27.1434 39.5564 24.3702C39.5772 21.6181 37.3692 19.3701 34.6197 19.3701Z" fill="#CAA977"/>
<path d="M24.7041 21.1152C22.9127 21.1152 21.4754 22.5649 21.4546 24.3716C21.4546 26.1784 22.8919 27.628 24.6832 27.649C26.4746 27.649 27.9119 26.1994 27.9327 24.3926C27.9327 22.5649 26.4746 21.1152 24.7041 21.1152Z" fill="#CAA977"/>
<path d="M6.64442 22.2266C5.47795 22.2266 4.51978 23.172 4.51978 24.3485C4.51978 25.525 5.45712 26.4914 6.62359 26.4914C7.79007 26.4914 8.74824 25.546 8.74824 24.3695C8.76907 23.193 7.8109 22.2266 6.64442 22.2266Z" fill="#CAA977"/>
<path d="M1.3956 22.9629C0.624896 22.9629 0 23.5932 0 24.3705C0 25.1478 0.624896 25.7781 1.3956 25.7781C2.16631 25.7781 2.7912 25.1478 2.7912 24.3705C2.7912 23.5932 2.16631 22.9629 1.3956 22.9629Z" fill="#CAA977"/>
<path d="M76.6953 9.72685C76.612 9.89492 76.5078 10.126 76.3828 10.3991C76.1121 10.9244 75.9454 11.3025 75.9037 11.5336C75.8829 11.5966 75.8621 11.6597 75.8204 11.6807C75.7788 11.7017 75.7371 11.7227 75.6954 11.7227C75.6538 11.7227 75.6121 11.6177 75.6121 11.3866C75.5913 11.1975 75.5913 11.0714 75.5705 10.9874C75.5288 10.8193 75.4247 10.6933 75.258 10.6092C75.0914 10.5042 74.9039 10.4622 74.7373 10.4411C74.6748 10.4411 74.4873 10.4411 74.2165 10.4411C73.425 10.4201 72.5918 10.4201 71.7169 10.4201L71.6336 11.6387C71.5711 12.353 71.5503 13.3194 71.5503 14.4959C71.5503 14.9161 71.5503 15.3362 71.5711 15.7564V16.8909C71.5711 18.4876 71.6128 20.2103 71.7169 22.0591C71.7378 22.4373 71.8419 22.7734 72.0086 23.0465C72.1752 23.3196 72.4252 23.5507 72.7584 23.6978V23.8449C72.0294 23.7818 71.3837 23.7608 70.8213 23.7608C70.2797 23.7608 69.6964 23.7818 69.0715 23.8449V23.6978C69.3632 23.5507 69.5923 23.3406 69.7798 23.0885C69.9672 22.8154 70.0505 22.5213 70.0714 22.1851C70.0922 21.0297 70.113 19.2859 70.113 16.9749C70.113 15.7564 70.113 14.748 70.113 13.9076C70.113 13.0883 70.0922 12.2479 70.0714 11.3866L70.0505 10.4411C69.3215 10.4411 68.6966 10.4622 68.1759 10.4832C67.6551 10.5042 67.1344 10.5882 66.6344 10.6933C66.447 10.7353 66.2387 10.7983 66.0304 10.9033C65.8012 11.0084 65.5929 11.1344 65.4263 11.2815C65.3638 11.3235 65.3013 11.3866 65.1972 11.4706C64.9889 11.6597 64.8431 11.7647 64.7597 11.7647C64.6764 11.7647 64.6348 11.7227 64.6348 11.6597C64.6556 11.5546 64.7597 11.3235 64.968 11.0294C65.1555 10.7773 65.2597 10.5882 65.3013 10.4832L65.4471 10.2311C65.6346 9.81088 65.7596 9.51676 65.8012 9.34868H66.0095C66.1762 9.53776 66.5095 9.64281 67.0094 9.66382C67.9467 9.68483 69.3632 9.68483 71.2378 9.68483C71.8627 9.68483 72.8418 9.66382 74.1749 9.6218C74.654 9.60079 75.133 9.60079 75.6121 9.57978C75.8829 9.55877 76.1745 9.49575 76.5078 9.34868C76.612 9.30667 76.6953 9.28566 76.7578 9.26465H76.9036C76.8203 9.3907 76.7786 9.55877 76.6953 9.72685Z" fill="#706F6F"/>
<path d="M80.9655 23.6967C80.6739 23.7177 80.299 23.7387 79.8824 23.7807L79.7365 23.8017V23.5286C79.8823 23.4656 80.0073 23.3605 80.1531 23.1925C80.2989 23.0454 80.4448 22.8773 80.5697 22.6672C80.6947 22.4572 80.7989 22.2681 80.8822 22.058C80.9655 21.8479 81.0072 21.6588 81.0072 21.4907C81.028 20.6084 81.0488 19.8731 81.0488 19.3058C81.0488 18.7386 81.0488 17.9192 81.0488 16.8688C81.0488 15.9864 81.028 15.083 81.0072 14.1586C80.9863 13.2342 80.9447 12.3519 80.903 11.4905C80.8822 11.1333 80.7572 10.7972 80.5697 10.4821C80.3614 10.1669 80.049 9.89381 79.5907 9.66271L79.5491 9.47363L79.6741 9.49464C80.1948 9.53666 80.6947 9.57868 81.153 9.6207C81.6112 9.66271 81.9653 9.66271 82.1945 9.66271C82.3819 9.66271 82.6319 9.66271 82.9444 9.6417C83.2568 9.6207 83.6526 9.6207 84.1108 9.59969L84.5899 9.55767C85.4231 9.49464 86.0272 9.47363 86.4021 9.47363C86.8812 9.47363 87.2978 9.49464 87.6103 9.53666C87.9227 9.57868 88.0893 9.68372 88.0893 9.83078C88.0893 10.0829 88.1102 10.398 88.1727 10.7552C88.2143 11.0493 88.2143 11.2594 88.2143 11.4275C88.2143 11.5325 88.1727 11.5745 88.1102 11.5745C88.0477 11.5745 87.9644 11.4905 87.881 11.3434C87.8394 11.2384 87.7977 11.1543 87.7561 11.1123C87.5894 10.8602 87.277 10.6501 86.8187 10.4821C86.3605 10.314 85.6939 10.23 84.8399 10.23C84.6107 10.23 84.2566 10.251 83.7567 10.293C83.3193 10.335 82.986 10.356 82.7569 10.356C82.6944 10.5451 82.6527 10.8392 82.6319 11.2594L82.6111 11.5745C82.5902 12.0367 82.5694 12.5619 82.5694 13.1292C82.5486 13.6964 82.5486 14.6418 82.5486 15.9864C82.8402 15.9864 83.236 15.9864 83.7151 16.0074C84.2566 16.0284 84.6107 16.0494 84.819 16.0494C84.9232 16.0494 85.0273 16.0494 85.1523 16.0284C85.3398 16.0284 85.4439 16.0284 85.4856 16.0284C85.9022 16.0074 86.2563 15.9234 86.5688 15.7973C86.8812 15.6713 87.1728 15.4192 87.4228 15.041H87.5478C87.5269 15.2091 87.5269 15.3561 87.5061 15.5242C87.4853 15.7133 87.4644 15.8814 87.4644 16.0074C87.4436 16.1545 87.4436 16.3225 87.4436 16.4906C87.4436 16.8058 87.4436 17.0158 87.4436 17.1209C87.4436 17.2259 87.4644 17.457 87.4853 17.7932H87.3603C87.1937 17.478 86.9437 17.2469 86.5896 17.0999C86.2355 16.9528 85.8189 16.8688 85.3606 16.8478C84.7774 16.8058 83.84 16.7847 82.5694 16.7847V16.8058C82.5694 17.6251 82.5902 18.3604 82.6111 19.0117C82.6319 19.663 82.6736 20.4823 82.7152 21.4697C82.7361 21.7849 82.8402 22.037 83.0277 22.2261C83.236 22.4361 83.4651 22.5832 83.7776 22.6883C84.0692 22.7933 84.3816 22.8773 84.7149 22.9194C85.0482 22.9614 85.3815 22.9824 85.7147 22.9824C86.2355 22.9824 86.6937 22.9404 87.0687 22.8773C87.4436 22.7933 87.7977 22.6462 88.1102 22.3941C88.4018 22.163 88.7351 21.7849 89.11 21.3017C89.36 21.0075 89.5058 20.8605 89.5683 20.8605C89.6724 20.8605 89.7141 20.9025 89.7141 21.0075C89.7141 21.1126 89.6932 21.2386 89.6308 21.3647C89.5683 21.4907 89.4641 21.6798 89.3391 21.9319C89.0683 22.4151 88.9017 22.7723 88.8392 23.0034V23.0454C88.7767 23.2555 88.6934 23.4026 88.5684 23.5286C88.4435 23.6337 88.1935 23.6967 87.8186 23.6967H85.194C84.4858 23.6967 83.84 23.6967 83.2985 23.6757C82.5694 23.6757 82.0487 23.6757 81.757 23.6757C81.5487 23.6547 81.278 23.6757 80.9655 23.6967Z" fill="#706F6F"/>
<path d="M95.3384 9.62064C96.005 9.57863 96.4841 9.55762 96.8174 9.55762C97.2131 9.55762 97.6714 9.62064 98.1713 9.72569C98.6712 9.83073 99.0878 9.9988 99.4419 10.2089C99.9835 10.545 100.4 11.0072 100.671 11.5955C100.942 12.1837 101.087 12.793 101.087 13.4023C101.087 14.0745 100.942 14.7048 100.65 15.2931C100.358 15.8813 99.9419 16.3645 99.4419 16.7217C99.1711 16.8897 98.9212 17.0158 98.6504 17.0998C98.7754 17.2889 99.0045 17.6461 99.3378 18.1923C99.8377 19.0116 100.275 19.7049 100.65 20.2722C101.025 20.8394 101.442 21.3856 101.879 21.8899C102.316 22.4151 102.775 22.8353 103.254 23.1504C103.733 23.4655 104.191 23.6336 104.67 23.6336C104.774 23.6336 104.899 23.6126 105.066 23.5916C105.233 23.5706 105.358 23.5706 105.462 23.5706C105.545 23.5706 105.587 23.6126 105.587 23.6756C105.587 23.7597 105.524 23.8437 105.42 23.9067C105.316 23.9908 105.17 24.0538 105.004 24.1168C104.837 24.1798 104.649 24.2219 104.483 24.2639C104.295 24.3059 104.149 24.3059 104.025 24.3059C103.4 24.3059 102.837 24.1798 102.316 23.9487C101.796 23.7176 101.337 23.4025 100.921 22.9823C100.504 22.5832 100.129 22.142 99.796 21.6798C99.4628 21.2176 99.067 20.6293 98.5879 19.915C98.1713 19.2637 97.8172 18.7385 97.5672 18.3814C97.2965 18.0032 97.0257 17.6461 96.7132 17.3099H95.8175C95.7134 17.3099 95.4843 17.3309 95.1926 17.3519C94.901 17.3939 94.6927 17.394 94.5469 17.394C94.5469 19.0957 94.5886 20.6503 94.6927 21.9949C94.7344 22.4571 94.8177 22.8143 94.9635 23.0454C95.1093 23.2765 95.3593 23.4655 95.7134 23.6336V23.7807C94.9843 23.7176 94.3386 23.6966 93.7762 23.6966C93.4638 23.6966 93.1305 23.6966 92.7555 23.7176C92.3806 23.7386 92.0682 23.7597 91.7974 23.7807V23.6336C92.1306 23.4655 92.4014 23.2554 92.6514 22.9823C92.8805 22.7302 93.0055 22.4361 93.0263 22.121C93.0472 20.9655 93.068 19.2217 93.068 16.9107C93.068 16.0284 93.0472 15.125 93.0263 14.2006C93.0055 13.2762 92.9638 12.3938 92.9222 11.5325C92.9013 11.1123 92.818 10.7761 92.6722 10.482C92.5264 10.1879 92.2556 9.93578 91.8599 9.72569V9.57863C92.1931 9.62064 92.5264 9.64165 92.8597 9.66266C93.193 9.68367 93.4846 9.68367 93.7554 9.68367C94.047 9.70468 94.6094 9.68367 95.3384 9.62064ZM94.4844 12.3308C94.4636 12.5619 94.4636 12.898 94.4636 13.3182C94.4428 13.8224 94.4428 14.9149 94.4428 16.5746C94.6302 16.5746 94.9427 16.5746 95.3593 16.5536C95.7134 16.5536 95.9425 16.5536 96.0467 16.5536C97.2965 16.5536 98.1505 16.3015 98.6504 15.7763C99.1295 15.251 99.3794 14.4107 99.3794 13.2762C99.3794 12.793 99.2753 12.3308 99.0462 11.8476C98.817 11.3854 98.5046 11.0072 98.1088 10.7341C97.838 10.545 97.5048 10.44 97.1506 10.377C96.7757 10.3139 96.3591 10.2929 95.9008 10.2929C95.6926 10.2929 95.3801 10.3139 95.0052 10.3349C94.8594 10.356 94.7552 10.356 94.6719 10.377C94.5886 10.545 94.5469 10.8392 94.5261 11.2593C94.5052 11.4484 94.5053 11.5535 94.5053 11.6165C94.5261 11.8686 94.5052 12.0997 94.4844 12.3308Z" fill="#706F6F"/>
<path d="M107.94 23.6967C107.649 23.7177 107.274 23.7387 106.857 23.7807L106.711 23.8017V23.5286C106.857 23.4656 106.982 23.3605 107.128 23.1925C107.274 23.0454 107.42 22.8773 107.545 22.6672C107.67 22.4572 107.774 22.2681 107.857 22.058C107.94 21.8479 107.982 21.6588 107.982 21.4907C108.003 20.6084 108.024 19.8731 108.024 19.3058C108.024 18.7386 108.024 17.9192 108.024 16.8688C108.024 15.9864 108.003 15.083 107.982 14.1586C107.961 13.2342 107.92 12.3519 107.878 11.4905C107.857 11.1333 107.732 10.7972 107.545 10.4821C107.336 10.1669 107.024 9.89381 106.566 9.66271L106.524 9.47363L106.649 9.49464C107.17 9.53666 107.67 9.57868 108.128 9.6207C108.586 9.66271 108.94 9.66271 109.169 9.66271C109.357 9.66271 109.607 9.66271 109.919 9.6417C110.232 9.6207 110.627 9.6207 111.086 9.59969L111.565 9.55767C112.398 9.49464 113.002 9.47363 113.377 9.47363C113.856 9.47363 114.273 9.49464 114.585 9.53666C114.898 9.57868 115.064 9.68372 115.064 9.83078C115.064 10.0829 115.085 10.398 115.147 10.7552C115.189 11.0493 115.189 11.2594 115.189 11.4275C115.189 11.5325 115.148 11.5745 115.085 11.5745C115.023 11.5745 114.939 11.4905 114.856 11.3434C114.814 11.2384 114.773 11.1543 114.731 11.1123C114.564 10.8602 114.252 10.6501 113.794 10.4821C113.335 10.314 112.669 10.23 111.815 10.23C111.586 10.23 111.231 10.251 110.732 10.293C110.294 10.335 109.961 10.356 109.732 10.356C109.669 10.5451 109.628 10.8392 109.607 11.2594L109.586 11.5745C109.565 12.0367 109.544 12.5619 109.544 13.1292C109.523 13.6964 109.523 14.6418 109.523 15.9864C109.815 15.9864 110.211 15.9864 110.69 16.0074C111.231 16.0284 111.586 16.0494 111.794 16.0494C111.898 16.0494 112.002 16.0494 112.127 16.0284C112.315 16.0284 112.419 16.0284 112.46 16.0284C112.877 16.0074 113.231 15.9234 113.544 15.7973C113.856 15.6713 114.148 15.4192 114.398 15.041H114.523C114.502 15.2091 114.502 15.3561 114.481 15.5242C114.46 15.7133 114.439 15.8814 114.439 16.0074C114.418 16.1545 114.418 16.3225 114.418 16.4906C114.418 16.8058 114.418 17.0158 114.418 17.1209C114.418 17.2259 114.439 17.457 114.46 17.7932H114.335C114.169 17.478 113.919 17.2469 113.564 17.0999C113.21 16.9528 112.794 16.8688 112.335 16.8478C111.752 16.8058 110.815 16.7847 109.544 16.7847V16.8058C109.544 17.6251 109.565 18.3604 109.586 19.0117C109.607 19.663 109.648 20.4823 109.69 21.4697C109.711 21.7849 109.815 22.037 110.003 22.2261C110.211 22.4361 110.44 22.5832 110.752 22.6883C111.044 22.7933 111.356 22.8773 111.69 22.9194C112.023 22.9614 112.356 22.9824 112.69 22.9824C113.21 22.9824 113.669 22.9404 114.044 22.8773C114.418 22.7933 114.773 22.6462 115.085 22.3941C115.377 22.163 115.71 21.7849 116.085 21.3017C116.335 21.0075 116.481 20.8605 116.543 20.8605C116.647 20.8605 116.689 20.9025 116.689 21.0075C116.689 21.1126 116.668 21.2386 116.606 21.3647C116.543 21.4907 116.439 21.6798 116.314 21.9319C116.043 22.4151 115.877 22.7723 115.814 23.0034V23.0454C115.752 23.2555 115.668 23.4026 115.543 23.5286C115.418 23.6337 115.168 23.6967 114.793 23.6967H112.21C111.502 23.6967 110.857 23.6967 110.315 23.6757C109.565 23.6757 109.065 23.6757 108.774 23.6757C108.503 23.6547 108.232 23.6757 107.94 23.6967Z" fill="#706F6F"/>
<path d="M121.438 23.8227C121.105 23.7597 120.689 23.6547 120.209 23.4866C119.918 23.4026 119.772 23.3605 119.772 23.3605C119.564 23.2975 119.439 23.1925 119.355 23.0244C119.293 22.8563 119.251 22.6042 119.251 22.3101L119.23 22.163C119.189 21.9529 119.168 21.7429 119.147 21.5328C119.126 21.3227 119.105 21.1336 119.105 20.9655C119.105 20.8185 119.126 20.6924 119.189 20.5664C119.23 20.4403 119.314 20.3773 119.397 20.3773C119.418 20.3773 119.46 20.4823 119.543 20.6714C119.626 20.9025 119.71 21.1336 119.793 21.3437C119.876 21.5538 120.001 21.7429 120.147 21.9109C120.418 22.2471 120.834 22.5412 121.376 22.7723C121.918 23.0244 122.397 23.1505 122.792 23.1505C123.084 23.1505 123.396 23.0874 123.709 22.9824C124.021 22.8773 124.313 22.7093 124.584 22.4992C124.855 22.2891 125.063 22.016 125.229 21.7008C125.396 21.3857 125.479 21.0285 125.479 20.6294C125.479 20.2302 125.396 19.8731 125.25 19.5369C125.104 19.2008 124.896 18.8856 124.625 18.6125C124.355 18.3184 124.084 18.0663 123.771 17.8352C123.459 17.6041 123.084 17.331 122.605 16.9948C122.105 16.6587 121.688 16.3646 121.376 16.1125C121.063 15.8603 120.751 15.5872 120.48 15.2931C120.209 14.999 119.98 14.6628 119.814 14.2847C119.647 13.9275 119.564 13.5073 119.564 13.0872C119.564 12.646 119.647 12.2048 119.793 11.7846C119.939 11.3644 120.168 10.9653 120.459 10.6291C120.751 10.272 121.147 9.99886 121.605 9.78877C122.063 9.57868 122.605 9.47363 123.209 9.47363C123.438 9.47363 123.813 9.51565 124.313 9.6207C124.792 9.72574 125.167 9.76776 125.396 9.76776C125.5 9.76776 125.625 9.74675 125.771 9.68372C125.938 9.6207 126.083 9.57868 126.208 9.57868C126.271 9.57868 126.313 9.6207 126.313 9.72574C126.313 10.0199 126.333 10.44 126.396 10.9863C126.438 11.5115 126.458 11.8897 126.458 12.1628C126.458 12.2258 126.438 12.2888 126.417 12.3519C126.396 12.4149 126.354 12.4569 126.333 12.4569C126.25 12.4569 126.125 12.2678 125.917 11.9107C125.813 11.7006 125.709 11.5325 125.625 11.3854C125.542 11.2384 125.438 11.1333 125.334 11.0493C125.021 10.7762 124.646 10.5661 124.209 10.44C123.771 10.314 123.355 10.251 122.98 10.251C122.73 10.251 122.48 10.293 122.23 10.398C121.98 10.5031 121.751 10.6501 121.543 10.8182C121.334 11.0073 121.168 11.2174 121.043 11.4485C120.918 11.6796 120.855 11.9317 120.855 12.1838C120.855 12.5199 120.918 12.8351 121.063 13.1292C121.209 13.4233 121.397 13.7174 121.647 13.9906C121.897 14.2637 122.167 14.4948 122.438 14.7049C122.709 14.9149 123.084 15.2091 123.584 15.5662C124.105 15.9444 124.542 16.2595 124.875 16.5326C125.209 16.8058 125.542 17.0999 125.834 17.436C126.125 17.7722 126.375 18.1503 126.563 18.5495C126.75 18.9487 126.833 19.3899 126.854 19.8731C126.854 20.3983 126.771 20.9025 126.583 21.3857C126.396 21.8689 126.125 22.3101 125.75 22.6883C125.375 23.0664 124.917 23.3816 124.355 23.5916C123.792 23.8227 123.146 23.9278 122.417 23.9278C122.126 23.9278 121.772 23.8858 121.438 23.8227Z" fill="#706F6F"/>
<path d="M140.768 21.9544C141.101 22.8368 141.622 23.404 142.309 23.6772V23.8032C141.685 23.6982 141.06 23.6561 140.435 23.6561C139.768 23.6561 139.102 23.6982 138.414 23.8032V23.6982C138.414 23.6141 138.498 23.4461 138.643 23.236C138.852 22.9418 138.956 22.7317 138.956 22.5847C138.956 22.4796 138.935 22.3746 138.914 22.2485C138.893 22.1225 138.852 22.0174 138.831 21.9124L137.498 18.2358C136.623 18.1518 135.873 18.1098 135.248 18.1098C134.394 18.1098 133.603 18.1518 132.874 18.2358L131.353 22.2275C131.207 22.5847 131.145 22.8578 131.145 23.0259C131.145 23.257 131.249 23.4881 131.457 23.6982V23.8032C130.999 23.7402 130.541 23.6982 130.082 23.6982C129.562 23.6982 129.062 23.7402 128.562 23.8032L128.645 23.6982C129.499 23.425 130.145 22.8158 130.52 21.8704L134.644 11.8071C134.686 11.7021 134.686 11.597 134.686 11.513C134.686 11.1768 134.561 10.8407 134.311 10.4835C134.061 10.1264 133.748 9.83226 133.373 9.58015L133.332 9.4541C133.603 9.47511 133.915 9.49612 134.311 9.51713C134.707 9.53814 135.061 9.53814 135.373 9.53814H135.831L136.623 11.555L140.768 21.9544ZM137.144 17.3114L135.331 12.4584H135.29L133.332 17.3114V17.3955C133.936 17.4375 134.582 17.4375 135.227 17.4375C135.894 17.4375 136.54 17.4165 137.164 17.3955V17.3114H137.144Z" fill="#706F6F"/>
<path d="M160.827 9.47419C161.119 9.53721 161.348 9.55822 161.494 9.55822C161.765 9.55822 162.16 9.53721 162.681 9.49519C162.952 9.47419 163.16 9.47419 163.306 9.45318V9.57923C162.994 9.7473 162.765 9.99941 162.619 10.3566C162.473 10.7137 162.39 11.1339 162.369 11.5961C162.348 11.8272 162.348 12.0793 162.327 12.3314C162.306 12.5835 162.306 12.9407 162.306 13.4029C162.285 13.9491 162.285 15.0836 162.285 16.8483C162.285 17.1845 162.285 17.7937 162.265 18.6971C162.244 19.7055 162.244 20.4619 162.244 20.9871C162.244 21.8064 162.265 22.4787 162.285 22.9619C162.285 23.067 162.285 23.172 162.306 23.2561C162.327 23.5292 162.327 23.7182 162.327 23.7813C162.327 23.9914 162.285 24.1174 162.181 24.1174C162.119 24.1174 161.952 23.9493 161.661 23.6132L152.245 12.6255H152.141C152.12 13.1507 152.1 13.76 152.1 14.4533C152.1 14.7474 152.1 15.1676 152.12 15.7138C152.12 16.113 152.12 16.4702 152.12 16.8273C152.12 18.424 152.162 20.1467 152.266 21.9955C152.287 22.3737 152.391 22.7098 152.558 22.9829C152.725 23.2561 152.974 23.4871 153.308 23.6342V23.7813C152.558 23.7182 151.933 23.6972 151.371 23.6972C151.141 23.6972 150.975 23.6972 150.871 23.6972C150.787 23.6972 150.642 23.7182 150.475 23.7182C150.412 23.7393 150.308 23.7393 150.183 23.7603V23.6132C150.475 23.4661 150.704 23.2561 150.891 23.0039C151.079 22.7308 151.162 22.4367 151.183 22.1006C151.204 20.9451 151.225 19.2013 151.225 16.8903C151.225 16.5962 151.225 16.029 151.246 15.1256C151.266 14.3693 151.266 13.739 151.266 13.2768C151.266 12.5835 151.246 11.9742 151.225 11.491V11.344C151.183 10.9868 151.1 10.6507 150.954 10.3356C150.808 10.0414 150.558 9.76831 150.183 9.5162L150.142 9.36914C150.537 9.41116 150.85 9.43217 151.1 9.45318C151.35 9.47419 151.6 9.49519 151.85 9.49519L161.223 20.693H161.369C161.39 19.8316 161.39 18.55 161.39 16.8483C161.39 15.9659 161.369 15.0626 161.348 14.1382C161.327 13.2138 161.286 12.3314 161.244 11.47C161.223 11.0078 161.161 10.6297 161.056 10.3356C160.952 10.0414 160.723 9.76831 160.348 9.5162V9.36914C160.432 9.41116 160.598 9.43217 160.827 9.47419Z" fill="#706F6F"/>
<path d="M175.388 9.97885C176.283 10.336 177.033 10.8612 177.658 11.5335C178.262 12.2058 178.741 12.9621 179.054 13.8445C179.366 14.7269 179.533 15.6723 179.533 16.6807C179.533 17.7311 179.345 18.6976 178.97 19.6009C178.595 20.5043 178.095 21.2817 177.429 21.9329C176.783 22.5842 176.012 23.0884 175.138 23.4456C174.263 23.8027 173.325 23.9708 172.367 23.9708C171.409 23.9708 170.472 23.7817 169.597 23.4036C168.722 23.0254 167.951 22.5002 167.285 21.8279C166.618 21.1556 166.118 20.3783 165.743 19.4959C165.368 18.6135 165.181 17.6681 165.181 16.7017C165.181 15.7143 165.368 14.7899 165.743 13.9075C166.118 13.0251 166.618 12.2478 167.285 11.5755C167.951 10.9032 168.701 10.378 169.576 9.99986C170.451 9.6217 171.367 9.43262 172.346 9.43262C173.492 9.43262 174.492 9.6217 175.388 9.97885ZM170.222 10.7142C169.555 11.0083 168.993 11.4075 168.514 11.9327C168.035 12.4579 167.66 13.0882 167.389 13.8235C167.118 14.5588 166.993 15.3781 166.993 16.2395C166.993 17.1219 167.118 17.9833 167.389 18.8026C167.66 19.622 168.035 20.3573 168.514 21.0085C168.993 21.6598 169.576 22.164 170.222 22.5422C170.888 22.8993 171.597 23.0884 172.346 23.0884C173.138 23.0884 173.867 22.9624 174.534 22.6893C175.2 22.4161 175.783 22.038 176.304 21.5128C176.804 21.0085 177.2 20.3783 177.471 19.664C177.741 18.9497 177.887 18.1513 177.887 17.29C177.887 16.2185 177.741 15.2311 177.471 14.3697C177.2 13.5084 176.804 12.752 176.304 12.1428C175.804 11.5335 175.221 11.0713 174.554 10.7562C173.888 10.441 173.138 10.273 172.367 10.273C171.596 10.294 170.888 10.441 170.222 10.7142Z" fill="#706F6F"/>
<path d="M183.761 14.8314C183.428 14.0541 182.99 13.0666 182.449 11.8481C182.365 11.659 182.324 11.554 182.303 11.533L182.261 11.3859C182.074 10.9657 181.886 10.6296 181.699 10.3775C181.511 10.1044 181.178 9.87328 180.741 9.64218L180.699 9.49512C180.845 9.51613 180.928 9.51613 181.011 9.53714C181.72 9.60016 182.22 9.62117 182.553 9.62117C182.969 9.62117 183.574 9.60016 184.365 9.55814L184.428 9.70521C184.157 9.87328 184.032 10.1674 184.032 10.6086C184.032 10.9657 184.094 11.3229 184.219 11.68C184.49 12.4154 184.782 13.1717 185.073 13.949C185.365 14.7053 185.719 15.5877 186.115 16.5751L186.261 16.9323C186.573 17.7306 187.073 18.8651 187.719 20.3777C187.864 20.7139 187.969 20.966 188.052 21.1341H188.219C188.448 20.5668 188.823 19.6424 189.323 18.3819L189.677 17.4785C189.885 16.9323 190.114 16.323 190.364 15.6507C190.614 14.9785 190.906 14.1591 191.26 13.1507C191.468 12.5624 191.614 12.1002 191.739 11.7641C191.801 11.575 191.864 11.3859 191.926 11.1968C191.968 11.0078 192.01 10.8187 192.01 10.6296C192.01 10.3775 191.947 10.1674 191.822 9.99933C191.697 9.83126 191.489 9.70521 191.176 9.64218L191.218 9.51613C191.926 9.57915 192.51 9.62117 192.989 9.62117C193.259 9.62117 193.676 9.60016 194.197 9.55814C194.488 9.53713 194.697 9.53713 194.843 9.51613L194.801 9.64218C194.405 9.81025 194.072 10.0624 193.801 10.4195C193.53 10.7767 193.259 11.1968 193.051 11.659C192.78 12.2473 192.51 12.8565 192.26 13.4658C192.01 14.0961 191.697 14.8734 191.322 15.7978L190.885 16.8903C190.697 17.3315 190.406 18.0247 190.01 18.9701C189.656 19.8315 189.323 20.6299 189.01 21.3442C188.719 22.0585 188.385 22.8988 188.01 23.8442C187.948 23.9703 187.885 24.0333 187.802 24.0333C187.719 24.0333 187.635 23.9493 187.573 23.7812C187.406 23.361 187.198 22.8568 186.969 22.2896C186.74 21.7223 186.386 20.903 185.906 19.8315C185.657 19.2643 185.427 18.7601 185.24 18.2979C185.032 17.8357 184.865 17.3945 184.677 16.9953C184.407 16.344 184.115 15.6087 183.761 14.8314Z" fill="#706F6F"/>
<path d="M197.655 23.8017V23.6547C197.946 23.5076 198.175 23.2975 198.363 23.0454C198.55 22.7723 198.634 22.4782 198.654 22.142C198.675 20.9865 198.696 19.2428 198.696 16.9318C198.696 16.0494 198.675 15.146 198.654 14.2217C198.634 13.2973 198.592 12.4149 198.55 11.5535C198.529 11.1333 198.446 10.7762 198.321 10.4611C198.196 10.1459 197.946 9.85179 197.571 9.59969V9.47363C198.321 9.53666 198.925 9.57868 199.404 9.57868C199.675 9.57868 200.071 9.55767 200.571 9.51565C200.842 9.49464 201.05 9.49464 201.196 9.47363V9.59969C200.883 9.76776 200.654 10.0199 200.508 10.377C200.363 10.7342 200.279 11.1543 200.258 11.6165C200.238 11.8476 200.238 12.0998 200.217 12.3519C200.196 12.604 200.196 12.9611 200.196 13.4233C200.175 13.9695 200.175 15.104 200.175 16.8688C200.175 18.4655 200.217 20.1882 200.321 22.037C200.342 22.4151 200.446 22.7513 200.612 23.0244C200.779 23.2975 201.029 23.5286 201.362 23.6757V23.8227C200.633 23.7597 199.988 23.7387 199.425 23.7387C198.863 23.7177 198.28 23.7387 197.655 23.8017Z" fill="#706F6F"/>
<path d="M205.466 23.6967C205.174 23.7177 204.799 23.7387 204.383 23.7807L204.237 23.8017V23.5286C204.383 23.4656 204.508 23.3605 204.654 23.1925C204.799 23.0454 204.945 22.8773 205.07 22.6672C205.195 22.4572 205.299 22.2681 205.383 22.058C205.466 21.8479 205.508 21.6588 205.508 21.4907C205.528 20.6084 205.549 19.8731 205.549 19.3058C205.549 18.7386 205.549 17.9192 205.549 16.8688C205.549 15.9864 205.528 15.083 205.508 14.1586C205.487 13.2342 205.445 12.3519 205.404 11.4905C205.383 11.1333 205.258 10.7972 205.07 10.4821C204.862 10.1669 204.549 9.89381 204.091 9.66271L204.05 9.47363L204.175 9.49464C204.695 9.53666 205.195 9.57868 205.653 9.6207C206.112 9.66271 206.466 9.66271 206.695 9.66271C206.882 9.66271 207.132 9.66271 207.445 9.6417C207.757 9.6207 208.153 9.6207 208.611 9.59969L209.09 9.55767C209.924 9.49464 210.528 9.47363 210.903 9.47363C211.382 9.47363 211.798 9.49464 212.111 9.53666C212.423 9.57868 212.59 9.68372 212.59 9.83078C212.59 10.0829 212.611 10.398 212.673 10.7552C212.715 11.0493 212.715 11.2594 212.715 11.4275C212.715 11.5325 212.673 11.5745 212.611 11.5745C212.548 11.5745 212.465 11.4905 212.381 11.3434C212.34 11.2384 212.298 11.1543 212.257 11.1123C212.09 10.8602 211.777 10.6501 211.319 10.4821C210.861 10.314 210.194 10.23 209.34 10.23C209.111 10.23 208.757 10.251 208.257 10.293C207.82 10.335 207.486 10.356 207.257 10.356C207.195 10.5451 207.153 10.8392 207.132 11.2594L207.112 11.5745C207.091 12.0367 207.07 12.5619 207.07 13.1292C207.049 13.6964 207.049 14.6418 207.049 15.9864C207.341 15.9864 207.736 15.9864 208.236 16.0074C208.778 16.0284 209.132 16.0494 209.34 16.0494C209.444 16.0494 209.549 16.0494 209.674 16.0284C209.861 16.0284 209.965 16.0284 210.007 16.0284C210.424 16.0074 210.778 15.9234 211.09 15.7973C211.403 15.6713 211.694 15.4192 211.944 15.041H212.069C212.048 15.2091 212.048 15.3561 212.027 15.5242C212.007 15.7133 211.986 15.8814 211.986 16.0074C211.965 16.1545 211.965 16.3225 211.965 16.4906C211.965 16.8058 211.965 17.0158 211.965 17.1209C211.965 17.2259 211.986 17.457 212.007 17.7932H211.882C211.715 17.478 211.465 17.2469 211.111 17.0999C210.757 16.9528 210.34 16.8688 209.882 16.8478C209.299 16.8058 208.361 16.7847 207.091 16.7847V16.8058C207.091 17.6251 207.112 18.3604 207.132 19.0117C207.153 19.663 207.195 20.4823 207.237 21.4697C207.257 21.7849 207.362 22.037 207.549 22.2261C207.757 22.4361 207.986 22.5832 208.299 22.6883C208.59 22.7933 208.903 22.8773 209.236 22.9194C209.569 22.9614 209.903 22.9824 210.236 22.9824C210.757 22.9824 211.215 22.9404 211.59 22.8773C211.965 22.7933 212.319 22.6462 212.631 22.3941C212.923 22.163 213.256 21.7849 213.631 21.3017C213.881 21.0075 214.027 20.8605 214.09 20.8605C214.194 20.8605 214.235 20.9025 214.235 21.0075C214.235 21.1126 214.215 21.2386 214.152 21.3647C214.09 21.4907 213.985 21.6798 213.86 21.9319C213.59 22.4151 213.423 22.7723 213.361 23.0034V23.0454C213.298 23.2555 213.215 23.4026 213.09 23.5286C212.965 23.6337 212.715 23.6967 212.34 23.6967H209.757C209.049 23.6967 208.403 23.6967 207.861 23.6757C207.112 23.6757 206.612 23.6757 206.32 23.6757C206.028 23.6547 205.778 23.6757 205.466 23.6967Z" fill="#706F6F"/>
<path d="M216.797 23.7387C216.464 23.7597 216.11 23.7807 215.756 23.8227L215.735 23.6337C215.881 23.5706 216.006 23.4446 216.152 23.2975C216.298 23.1505 216.423 22.9614 216.547 22.7513C216.672 22.5412 216.756 22.3311 216.839 22.121C216.922 21.9109 216.943 21.7218 216.943 21.5538C216.964 20.6714 216.985 19.9361 216.985 19.3688C216.985 18.8016 216.985 17.9823 216.985 16.9318C216.985 16.0494 216.964 15.146 216.943 14.2217C216.922 13.2973 216.881 12.4149 216.839 11.5535C216.818 11.1333 216.735 10.7762 216.61 10.4611C216.485 10.1459 216.235 9.85179 215.86 9.59969V9.47363C216.61 9.53666 217.214 9.57868 217.693 9.57868C217.964 9.57868 218.36 9.55767 218.88 9.51565C219.151 9.49464 219.36 9.49464 219.505 9.47363V9.59969C219.193 9.76776 218.964 10.0199 218.818 10.377C218.672 10.7342 218.589 11.1543 218.568 11.6165C218.547 11.8476 218.547 12.0998 218.526 12.3519C218.505 12.604 218.505 12.9611 218.505 13.4233C218.485 13.9695 218.485 15.104 218.485 16.8688C218.485 17.6881 218.505 18.4234 218.526 19.0747C218.547 19.726 218.589 20.5453 218.63 21.5328C218.651 21.8479 218.714 22.1 218.86 22.3101C219.005 22.5202 219.193 22.6883 219.401 22.7933C219.63 22.8983 219.88 22.9824 220.151 23.0454C220.422 23.0874 220.734 23.1294 221.047 23.1294C221.505 23.1294 221.984 23.0664 222.484 22.9404C222.984 22.8143 223.401 22.6042 223.713 22.3521C223.9 22.184 224.067 22.016 224.213 21.8269C224.359 21.6378 224.505 21.4067 224.671 21.1546C224.859 20.8395 224.984 20.6714 225.067 20.6714C225.109 20.6714 225.15 20.6924 225.171 20.7344C225.192 20.7764 225.192 20.8395 225.192 20.8815C225.192 20.9865 225.15 21.1336 225.088 21.3017C225.025 21.4697 224.921 21.7008 224.817 21.9529C224.609 22.4572 224.463 22.8143 224.4 23.0244C224.359 23.2135 224.275 23.3816 224.171 23.5076C224.067 23.6337 223.9 23.7177 223.734 23.7177C223.692 23.7177 223.463 23.7387 223.067 23.7597C222.359 23.8017 221.859 23.8227 221.526 23.8227C221.13 23.8227 220.797 23.8227 220.484 23.8017C220.172 23.7807 219.818 23.7807 219.443 23.7597C218.755 23.7177 218.172 23.7177 217.714 23.7177C217.443 23.6967 217.152 23.6967 216.797 23.7387Z" fill="#706F6F"/>
<path d="M227.858 23.7387C227.525 23.7597 227.171 23.7807 226.816 23.8227L226.796 23.6337C226.941 23.5706 227.066 23.4446 227.212 23.2975C227.358 23.1505 227.483 22.9614 227.608 22.7513C227.733 22.5412 227.816 22.3311 227.9 22.121C227.983 21.9109 228.004 21.7218 228.004 21.5538C228.025 20.6714 228.045 19.9361 228.045 19.3688C228.045 18.8016 228.045 17.9823 228.045 16.9318C228.045 16.0494 228.025 15.146 228.004 14.2217C227.983 13.2973 227.941 12.4149 227.9 11.5535C227.879 11.1333 227.795 10.7762 227.671 10.4611C227.546 10.1459 227.296 9.85179 226.921 9.59969V9.47363C227.671 9.53666 228.275 9.57868 228.754 9.57868C229.024 9.57868 229.42 9.55767 229.941 9.51565C230.212 9.49464 230.42 9.49464 230.566 9.47363V9.59969C230.253 9.76776 230.024 10.0199 229.878 10.377C229.733 10.7342 229.649 11.1543 229.629 11.6165C229.608 11.8476 229.608 12.0998 229.587 12.3519C229.566 12.604 229.566 12.9611 229.566 13.4233C229.545 13.9695 229.545 15.104 229.545 16.8688C229.545 17.6881 229.566 18.4234 229.587 19.0747C229.608 19.726 229.649 20.5453 229.691 21.5328C229.712 21.8479 229.774 22.1 229.92 22.3101C230.066 22.5202 230.253 22.6883 230.462 22.7933C230.691 22.8983 230.941 22.9824 231.212 23.0454C231.482 23.0874 231.795 23.1294 232.107 23.1294C232.566 23.1294 233.045 23.0664 233.545 22.9404C234.044 22.8143 234.461 22.6042 234.773 22.3521C234.961 22.184 235.128 22.016 235.273 21.8269C235.419 21.6378 235.565 21.4067 235.732 21.1546C235.919 20.8395 236.044 20.6714 236.127 20.6714C236.169 20.6714 236.211 20.6924 236.232 20.7344C236.252 20.7764 236.252 20.8395 236.252 20.8815C236.252 20.9865 236.211 21.1336 236.148 21.3017C236.086 21.4697 235.982 21.7008 235.877 21.9529C235.669 22.4572 235.523 22.8143 235.461 23.0244C235.419 23.2135 235.336 23.3816 235.232 23.5076C235.128 23.6337 234.961 23.7177 234.794 23.7177C234.753 23.7177 234.524 23.7387 234.128 23.7597C233.42 23.8017 232.92 23.8227 232.586 23.8227C232.191 23.8227 231.857 23.8227 231.545 23.8017C231.232 23.7807 230.878 23.7807 230.503 23.7597C229.816 23.7177 229.233 23.7177 228.774 23.7177C228.504 23.6967 228.212 23.6967 227.858 23.7387Z" fill="#706F6F"/>
<path d="M247.855 9.97885C248.75 10.336 249.5 10.8612 250.125 11.5335C250.729 12.2058 251.208 12.9621 251.521 13.8445C251.833 14.7269 252 15.6723 252 16.6807C252 17.7311 251.812 18.6976 251.437 19.6009C251.062 20.5043 250.563 21.2817 249.896 21.9329C249.25 22.5842 248.48 23.0884 247.605 23.4456C246.73 23.8027 245.793 23.9708 244.814 23.9708C243.855 23.9708 242.918 23.7817 242.043 23.4036C241.168 23.0254 240.398 22.5002 239.731 21.8279C239.064 21.1556 238.565 20.3783 238.19 19.4959C237.815 18.6135 237.627 17.6681 237.627 16.7017C237.627 15.7143 237.815 14.7899 238.19 13.9075C238.565 13.0251 239.064 12.2478 239.731 11.5755C240.398 10.9032 241.147 10.378 242.022 9.99986C242.897 9.6217 243.814 9.43262 244.793 9.43262C245.938 9.43262 246.959 9.6217 247.855 9.97885ZM242.689 10.7142C242.022 11.0083 241.46 11.4075 240.981 11.9327C240.502 12.4579 240.127 13.0882 239.856 13.8235C239.585 14.5588 239.46 15.3781 239.46 16.2395C239.46 17.1219 239.585 17.9833 239.856 18.8026C240.127 19.622 240.502 20.3573 240.981 21.0085C241.46 21.6598 242.043 22.164 242.689 22.5422C243.355 22.8993 244.064 23.0884 244.814 23.0884C245.605 23.0884 246.334 22.9624 247.001 22.6893C247.667 22.4161 248.25 22.038 248.771 21.5128C249.271 21.0085 249.667 20.3783 249.938 19.664C250.208 18.9497 250.354 18.1513 250.354 17.29C250.354 16.2185 250.208 15.2311 249.938 14.3697C249.667 13.5084 249.271 12.752 248.771 12.1428C248.271 11.5335 247.688 11.0713 247.021 10.7562C246.355 10.441 245.605 10.273 244.834 10.273C244.064 10.294 243.335 10.441 242.689 10.7142Z" fill="#706F6F"/>
<path d="M74.404 37.543C74.2165 37.7951 74.0082 37.9842 73.7791 38.0892C73.55 38.1943 73.3417 38.2573 73.1126 38.2573C72.8001 38.2573 72.5293 38.1943 72.3002 38.0892C72.0502 37.9842 71.8419 37.8371 71.6753 37.627C71.5087 37.4379 71.3628 37.2068 71.2587 36.9337C71.1545 36.6606 71.1129 36.3665 71.1129 36.0514C71.1129 35.7572 71.1545 35.4841 71.2587 35.232C71.3628 34.9799 71.4878 34.7488 71.6753 34.5597C71.8419 34.3706 72.0502 34.2236 72.3002 34.1185C72.5502 34.0135 72.8209 33.9505 73.1126 33.9505C73.3209 33.9505 73.5083 33.9925 73.7166 34.0555C73.9041 34.1185 74.1124 34.2866 74.3207 34.5177L74.3832 34.6017L74.4665 34.5387L75.4247 33.8244L75.3414 33.7404C75.0289 33.3832 74.6748 33.1101 74.2999 32.942C73.9249 32.795 73.5292 32.7109 73.0917 32.7109C72.6126 32.7109 72.1544 32.795 71.7378 32.942C71.3212 33.1101 70.9671 33.3412 70.6755 33.6353C70.3838 33.9295 70.1339 34.2866 69.9672 34.7068C69.8006 35.127 69.7173 35.5892 69.7173 36.0934C69.7173 36.5976 69.8006 37.0388 69.9672 37.459C70.1339 37.8791 70.363 38.2153 70.6755 38.5094C70.9671 38.8035 71.3212 39.0346 71.7378 39.1817C72.1544 39.3498 72.5918 39.4128 73.0917 39.4128C73.55 39.4128 74.0082 39.3287 74.404 39.1397C74.8206 38.9506 75.1747 38.6565 75.4663 38.2573L75.5288 38.1733L74.4457 37.3959L74.404 37.543Z" fill="#706F6F"/>
<path d="M86.9019 32.8994H85.5896V33.0045V39.3281H89.5265V38.1096H86.9019V32.8994Z" fill="#706F6F"/>
<path d="M99.6289 33.0045V39.3281H100.962V32.8994H99.6289V33.0045Z" fill="#706F6F"/>
<path d="M116.085 37.2693L113.252 32.8994H111.627V33.0045V39.3281H112.96V34.8112L115.835 39.3281H117.397V32.8994H116.085V37.2693Z" fill="#706F6F"/>
<path d="M128.083 33.0045V39.3281H129.416V32.8994H128.083V33.0045Z" fill="#706F6F"/>
<path d="M144.413 37.543C144.226 37.7951 144.018 37.9842 143.788 38.0892C143.559 38.1943 143.351 38.2573 143.122 38.2573C142.809 38.2573 142.539 38.1943 142.309 38.0892C142.06 37.9842 141.851 37.8371 141.685 37.627C141.518 37.4379 141.372 37.2068 141.268 36.9337C141.164 36.6606 141.122 36.3665 141.122 36.0514C141.122 35.7572 141.164 35.4841 141.268 35.232C141.372 34.9799 141.497 34.7488 141.685 34.5597C141.851 34.3706 142.06 34.2236 142.309 34.1185C142.559 34.0135 142.83 33.9505 143.122 33.9505C143.33 33.9505 143.518 33.9925 143.726 34.0555C143.913 34.1185 144.122 34.2866 144.33 34.5177L144.392 34.6017L144.476 34.5387L145.434 33.8244L145.351 33.7404C145.038 33.3832 144.684 33.1101 144.309 32.942C143.934 32.795 143.538 32.7109 143.101 32.7109C142.622 32.7109 142.164 32.795 141.747 32.942C141.33 33.1101 140.976 33.3412 140.685 33.6353C140.393 33.9295 140.143 34.2866 139.977 34.7068C139.81 35.127 139.727 35.5892 139.727 36.0934C139.727 36.5976 139.81 37.0388 139.977 37.459C140.143 37.8791 140.372 38.2153 140.685 38.5094C140.976 38.8035 141.33 39.0346 141.747 39.1817C142.164 39.3498 142.601 39.4128 143.101 39.4128C143.559 39.4128 144.018 39.3287 144.413 39.1397C144.83 38.9506 145.184 38.6565 145.476 38.2573L145.538 38.1733L144.455 37.3959L144.413 37.543Z" fill="#706F6F"/>
<path d="M158.723 32.8994H157.619L157.598 32.9624L154.849 39.3281H156.328L156.89 37.8995H159.411L159.994 39.3281H161.494L158.723 32.8994ZM158.932 36.744H157.348L158.14 34.6432L158.932 36.744Z" fill="#706F6F"/>
<path d="M100.9 31.8493L101.962 30.7568H100.463L100.421 30.7989L99.7126 31.8493H100.9Z" fill="#706F6F"/>
</svg>
