<svg width="373" height="72" viewBox="0 0 373 72" fill="none" xmlns="http://www.w3.org/2000/svg">
<g clip-path="url(#clip0)">
<path d="M84.201 21.8764C81.4879 15.4458 76.9865 9.99974 71.2826 6.15369C65.6096 2.27686 58.7034 0.0307684 51.3346 0C46.4016 0 41.6843 0.98459 37.3988 2.76916C30.955 5.47678 25.4978 9.96897 21.6438 15.6611C17.7591 21.3533 15.5084 28.2146 15.4775 35.5991C15.4775 40.522 16.4641 45.2296 18.2524 49.5064C20.9656 55.937 25.467 61.383 31.1708 65.2291C36.8746 69.1059 43.7501 71.352 51.1496 71.3828C56.0827 71.3828 60.7999 70.3982 65.0855 68.6136C71.5293 65.906 76.9865 61.4138 80.8404 55.7216C84.7252 50.0295 86.9759 43.1681 87.0067 35.7837C87.0067 30.8607 86.0201 26.1532 84.201 21.8764ZM76.4007 46.368C74.3041 51.2602 70.8202 55.4139 66.4729 58.3369C62.0948 61.2599 56.8535 62.9522 51.1805 62.9522C47.3882 62.9522 43.8117 62.183 40.5436 60.7676C35.6414 58.6754 31.4791 55.1986 28.5501 50.8602C26.0219 47.1065 24.4187 42.7066 24.0179 37.9682C24.5728 38.4913 25.3128 38.799 26.1144 38.799C27.841 38.799 29.2592 37.4144 29.2592 35.6914C29.2592 33.9683 27.8718 32.553 26.1453 32.553C25.3128 32.553 24.5728 32.8607 24.0179 33.3837C24.2645 30.43 24.9737 27.5993 26.0836 24.984C28.1801 20.0918 31.6641 15.938 36.0113 13.015C40.3894 10.092 45.6308 8.39978 51.3038 8.39978C55.0961 8.39978 58.6725 9.16899 61.9407 10.5843C66.8429 12.6766 71.0051 16.1534 73.9341 20.4918C76.8631 24.8609 78.5589 30.0915 78.5589 35.7529C78.5589 39.5374 77.7881 43.1066 76.4007 46.368Z" fill="#CAA977"/>
<path d="M51.242 28.3685C47.1723 28.3685 43.9041 31.6299 43.8733 35.6606C43.8733 39.722 47.1414 42.9835 51.1804 43.0142C55.2193 43.0142 58.5183 39.7528 58.5491 35.6914C58.5799 31.6607 55.3118 28.3685 51.242 28.3685Z" fill="#CAA977"/>
<path d="M36.5663 30.9223C33.9148 30.9223 31.7874 33.0453 31.7566 35.6914C31.7566 38.3375 33.884 40.4605 36.5355 40.4913C39.187 40.4913 41.3144 38.3683 41.3452 35.7222C41.3452 33.0453 39.187 30.9223 36.5663 30.9223Z" fill="#CAA977"/>
<path d="M9.83525 32.553C8.10868 32.553 6.69043 33.9376 6.69043 35.6606C6.69043 37.3836 8.07785 38.799 9.80441 38.799C11.531 38.799 12.9492 37.4144 12.9492 35.6914C12.9801 33.9683 11.5618 32.553 9.83525 32.553Z" fill="#CAA977"/>
<path d="M2.06571 33.6299C0.924946 33.6299 0 34.5529 0 35.6914C0 36.8298 0.924946 37.7528 2.06571 37.7528C3.20648 37.7528 4.13143 36.8298 4.13143 35.6914C4.13143 34.5529 3.20648 33.6299 2.06571 33.6299Z" fill="#CAA977"/>
<path d="M113.522 14.2458C113.398 14.492 113.244 14.8304 113.059 15.2304C112.658 15.9996 112.412 16.5534 112.35 16.8919C112.319 16.9842 112.288 17.0765 112.227 17.1073C112.165 17.138 112.103 17.1688 112.042 17.1688C111.98 17.1688 111.918 17.015 111.918 16.6765C111.888 16.3996 111.888 16.215 111.857 16.0919C111.795 15.8458 111.641 15.6612 111.394 15.5381C111.148 15.3842 110.87 15.3227 110.623 15.2919C110.531 15.2919 110.253 15.2919 109.853 15.2919C108.681 15.2612 107.448 15.2612 106.153 15.2612L106.03 17.0457C105.937 18.0919 105.906 19.5072 105.906 21.2302C105.906 21.8456 105.906 22.461 105.937 23.0764V24.7378C105.937 27.0762 105.999 29.5993 106.153 32.3069C106.184 32.8607 106.338 33.353 106.585 33.753C106.831 34.153 107.201 34.4914 107.694 34.7068V34.9222C106.615 34.8299 105.66 34.7991 104.827 34.7991C104.026 34.7991 103.162 34.8299 102.237 34.9222V34.7068C102.669 34.4914 103.008 34.1838 103.286 33.8145C103.563 33.4145 103.686 32.9838 103.717 32.4915C103.748 30.7992 103.779 28.2454 103.779 24.8609C103.779 23.0764 103.779 21.5995 103.779 20.3687C103.779 19.1688 103.748 17.938 103.717 16.6765L103.686 15.2919C102.607 15.2919 101.682 15.3227 100.912 15.3535C100.141 15.3842 99.3699 15.5073 98.63 15.6612C98.3525 15.7227 98.0442 15.815 97.7359 15.9688C97.3967 16.1227 97.0884 16.3073 96.8418 16.5227C96.7493 16.5842 96.6568 16.6765 96.5026 16.7996C96.1943 17.0765 95.9785 17.2304 95.8552 17.2304C95.7318 17.2304 95.6702 17.1688 95.6702 17.0765C95.701 16.9227 95.8552 16.5842 96.1635 16.1535C96.441 15.7842 96.5951 15.5073 96.6568 15.3535L96.8726 14.9843C97.1501 14.3689 97.3351 13.9381 97.3967 13.692H97.705C97.9517 13.9689 98.445 14.1227 99.185 14.1535C100.572 14.1843 102.669 14.1843 105.444 14.1843C106.369 14.1843 107.818 14.1535 109.791 14.092C110.5 14.0612 111.209 14.0612 111.918 14.0304C112.319 13.9997 112.751 13.9074 113.244 13.692C113.398 13.6304 113.522 13.5997 113.614 13.5689H113.83C113.707 13.7535 113.645 13.9997 113.522 14.2458Z" fill="#706F6F"/>
<path d="M119.842 34.7068C119.411 34.7376 118.856 34.7683 118.239 34.8299L118.023 34.8607V34.4607C118.239 34.3684 118.424 34.2145 118.64 33.9684C118.856 33.753 119.071 33.5068 119.256 33.1992C119.441 32.8915 119.595 32.6146 119.719 32.3069C119.842 31.9992 119.904 31.7223 119.904 31.4761C119.935 30.1839 119.965 29.107 119.965 28.2762C119.965 27.4455 119.965 26.2455 119.965 24.7071C119.965 23.4148 119.935 22.0918 119.904 20.7379C119.873 19.3841 119.811 18.0919 119.75 16.8304C119.719 16.3073 119.534 15.815 119.256 15.3535C118.948 14.8919 118.486 14.492 117.807 14.1535L117.746 13.8766L117.931 13.9074C118.701 13.9689 119.441 14.0304 120.12 14.092C120.798 14.1535 121.322 14.1535 121.661 14.1535C121.939 14.1535 122.309 14.1535 122.771 14.1227C123.234 14.092 123.819 14.092 124.498 14.0612L125.207 13.9997C126.44 13.9074 127.334 13.8766 127.889 13.8766C128.598 13.8766 129.215 13.9074 129.677 13.9689C130.14 14.0304 130.387 14.1843 130.387 14.3997C130.387 14.7689 130.417 15.2304 130.51 15.7535C130.572 16.1842 130.572 16.4919 130.572 16.7381C130.572 16.8919 130.51 16.9534 130.417 16.9534C130.325 16.9534 130.202 16.8304 130.078 16.615C130.017 16.4611 129.955 16.3381 129.893 16.2765C129.647 15.9073 129.184 15.5996 128.506 15.3535C127.827 15.1073 126.841 14.9843 125.577 14.9843C125.238 14.9843 124.714 15.015 123.974 15.0766C123.326 15.1381 122.833 15.1689 122.494 15.1689C122.401 15.4458 122.34 15.8765 122.309 16.4919L122.278 16.9534C122.247 17.6303 122.216 18.3995 122.216 19.2303C122.185 20.061 122.185 21.4456 122.185 23.4148C122.617 23.4148 123.203 23.4148 123.912 23.4456C124.714 23.4763 125.238 23.5071 125.546 23.5071C125.7 23.5071 125.854 23.5071 126.039 23.4763C126.317 23.4763 126.471 23.4763 126.533 23.4763C127.149 23.4456 127.673 23.3225 128.136 23.1379C128.598 22.9533 129.03 22.5841 129.4 22.0302H129.585C129.554 22.2764 129.554 22.4917 129.523 22.7379C129.492 23.0148 129.462 23.261 129.462 23.4456C129.431 23.6609 129.431 23.9071 129.431 24.1532C129.431 24.6148 129.431 24.9225 129.431 25.0763C129.431 25.2301 129.462 25.5686 129.492 26.0609H129.307C129.061 25.5994 128.691 25.2609 128.167 25.0455C127.643 24.8301 127.026 24.7071 126.348 24.6763C125.484 24.6148 124.097 24.584 122.216 24.584V24.6148C122.216 25.8147 122.247 26.8916 122.278 27.8455C122.309 28.7993 122.37 29.9992 122.432 31.4454C122.463 31.9069 122.617 32.2761 122.894 32.553C123.203 32.8607 123.542 33.0761 124.004 33.2299C124.436 33.3838 124.899 33.5068 125.392 33.5684C125.885 33.6299 126.378 33.6607 126.872 33.6607C127.643 33.6607 128.321 33.5991 128.876 33.5068C129.431 33.3838 129.955 33.1684 130.417 32.7992C130.849 32.4607 131.342 31.9069 131.897 31.1992C132.267 30.7685 132.483 30.5531 132.576 30.5531C132.73 30.5531 132.791 30.6146 132.791 30.7685C132.791 30.9223 132.761 31.1069 132.668 31.2915C132.576 31.4761 132.421 31.753 132.236 32.1223C131.836 32.8299 131.589 33.353 131.496 33.6915V33.753C131.404 34.0607 131.281 34.2761 131.096 34.4607C130.911 34.6145 130.541 34.7068 129.986 34.7068H126.101C125.053 34.7068 124.097 34.7068 123.295 34.676C122.216 34.676 121.445 34.676 121.014 34.676C120.705 34.6453 120.305 34.676 119.842 34.7068Z" fill="#706F6F"/>
<path d="M141.116 14.0919C142.102 14.0304 142.812 13.9996 143.305 13.9996C143.891 13.9996 144.569 14.0919 145.309 14.2458C146.049 14.3996 146.666 14.6458 147.19 14.9535C147.991 15.4457 148.608 16.1227 149.009 16.9842C149.41 17.8457 149.625 18.738 149.625 19.6303C149.625 20.6148 149.41 21.5379 148.978 22.3994C148.546 23.2609 147.93 23.9686 147.19 24.4917C146.789 24.7378 146.419 24.9224 146.018 25.0455C146.203 25.3224 146.542 25.8455 147.036 26.6455C147.775 27.8454 148.423 28.8608 148.978 29.6915C149.533 30.5223 150.15 31.3223 150.797 32.0607C151.444 32.8299 152.123 33.4453 152.832 33.9068C153.541 34.3683 154.219 34.6145 154.928 34.6145C155.083 34.6145 155.268 34.5837 155.514 34.5529C155.761 34.5222 155.946 34.5222 156.1 34.5222C156.223 34.5222 156.285 34.5837 156.285 34.676C156.285 34.7991 156.192 34.9222 156.038 35.0145C155.884 35.1375 155.668 35.2298 155.422 35.3222C155.175 35.4145 154.898 35.476 154.651 35.5375C154.373 35.5991 154.158 35.5991 153.973 35.5991C153.048 35.5991 152.215 35.4145 151.444 35.076C150.674 34.7376 149.995 34.276 149.379 33.6607C148.762 33.0761 148.207 32.4299 147.714 31.753C147.221 31.0761 146.635 30.2146 145.926 29.1685C145.309 28.2146 144.785 27.4454 144.415 26.9224C144.014 26.3685 143.613 25.8455 143.151 25.3532H141.825C141.671 25.3532 141.332 25.384 140.9 25.4147C140.468 25.4763 140.16 25.4763 139.944 25.4763C139.944 27.9685 140.006 30.2454 140.16 32.2145C140.222 32.8914 140.345 33.4145 140.561 33.753C140.777 34.0914 141.147 34.3683 141.671 34.6145V34.8299C140.592 34.7376 139.636 34.7068 138.804 34.7068C138.341 34.7068 137.848 34.7068 137.293 34.7376C136.738 34.7683 136.275 34.7991 135.875 34.8299V34.6145C136.368 34.3683 136.769 34.0606 137.139 33.6607C137.478 33.2914 137.663 32.8607 137.694 32.3992C137.724 30.7069 137.755 28.1531 137.755 24.7686C137.755 23.4763 137.724 22.1533 137.694 20.7995C137.663 19.4456 137.601 18.1534 137.539 16.8919C137.509 16.2765 137.385 15.7842 137.169 15.3534C136.954 14.9227 136.553 14.5535 135.967 14.2458V14.0304C136.46 14.0919 136.954 14.1227 137.447 14.1535C137.94 14.1842 138.372 14.1842 138.773 14.1842C139.204 14.215 140.037 14.1842 141.116 14.0919ZM139.852 18.0611C139.821 18.3995 139.821 18.8918 139.821 19.5072C139.79 20.2456 139.79 21.8456 139.79 24.2763C140.068 24.2763 140.53 24.2763 141.147 24.2455C141.671 24.2455 142.01 24.2455 142.164 24.2455C144.014 24.2455 145.278 23.8763 146.018 23.1071C146.727 22.3379 147.097 21.1071 147.097 19.4456C147.097 18.738 146.943 18.0611 146.604 17.3534C146.265 16.6765 145.802 16.1227 145.216 15.7227C144.816 15.4457 144.322 15.2919 143.798 15.1996C143.243 15.1073 142.627 15.0765 141.948 15.0765C141.64 15.0765 141.178 15.1073 140.623 15.1381C140.407 15.1688 140.253 15.1688 140.129 15.1996C140.006 15.4458 139.944 15.8765 139.913 16.4919C139.883 16.7688 139.883 16.9226 139.883 17.0149C139.913 17.3842 139.883 17.7226 139.852 18.0611Z" fill="#706F6F"/>
<path d="M159.769 34.7068C159.337 34.7376 158.782 34.7683 158.166 34.8299L157.95 34.8607V34.4607C158.166 34.3684 158.351 34.2145 158.566 33.9684C158.782 33.753 158.998 33.5068 159.183 33.1992C159.368 32.8915 159.522 32.6146 159.646 32.3069C159.769 31.9992 159.831 31.7223 159.831 31.4761C159.861 30.1839 159.892 29.107 159.892 28.2762C159.892 27.4455 159.892 26.2455 159.892 24.7071C159.892 23.4148 159.861 22.0918 159.831 20.7379C159.8 19.3841 159.738 18.0919 159.676 16.8304C159.646 16.3073 159.461 15.815 159.183 15.3535C158.875 14.8919 158.412 14.492 157.734 14.1535L157.672 13.8766L157.857 13.9074C158.628 13.9689 159.368 14.0304 160.046 14.092C160.725 14.1535 161.249 14.1535 161.588 14.1535C161.865 14.1535 162.235 14.1535 162.698 14.1227C163.16 14.092 163.746 14.092 164.424 14.0612L165.134 13.9997C166.367 13.9074 167.261 13.8766 167.816 13.8766C168.525 13.8766 169.142 13.9074 169.604 13.9689C170.067 14.0304 170.313 14.1843 170.313 14.3997C170.313 14.7689 170.344 15.2304 170.437 15.7535C170.498 16.1842 170.498 16.4919 170.498 16.7381C170.498 16.8919 170.437 16.9534 170.344 16.9534C170.252 16.9534 170.128 16.8304 170.005 16.615C169.943 16.4611 169.882 16.3381 169.82 16.2765C169.573 15.9073 169.111 15.5996 168.433 15.3535C167.754 15.1073 166.768 14.9843 165.504 14.9843C165.164 14.9843 164.64 15.015 163.9 15.0766C163.253 15.1381 162.76 15.1689 162.42 15.1689C162.328 15.4458 162.266 15.8765 162.235 16.4919L162.205 16.9534C162.174 17.6303 162.143 18.3995 162.143 19.2303C162.112 20.061 162.112 21.4456 162.112 23.4148C162.544 23.4148 163.13 23.4148 163.839 23.4456C164.64 23.4763 165.164 23.5071 165.473 23.5071C165.627 23.5071 165.781 23.5071 165.966 23.4763C166.244 23.4763 166.398 23.4763 166.459 23.4763C167.076 23.4456 167.6 23.3225 168.063 23.1379C168.525 22.9533 168.957 22.5841 169.327 22.0302H169.512C169.481 22.2764 169.481 22.4917 169.45 22.7379C169.419 23.0148 169.388 23.261 169.388 23.4456C169.358 23.6609 169.358 23.9071 169.358 24.1532C169.358 24.6148 169.358 24.9225 169.358 25.0763C169.358 25.2301 169.388 25.5686 169.419 26.0609H169.234C168.988 25.5994 168.618 25.2609 168.093 25.0455C167.569 24.8301 166.953 24.7071 166.274 24.6763C165.411 24.6148 164.024 24.584 162.143 24.584V24.6148C162.143 25.8147 162.174 26.8916 162.205 27.8455C162.235 28.7993 162.297 29.9992 162.359 31.4454C162.39 31.9069 162.544 32.2761 162.821 32.553C163.13 32.8607 163.469 33.0761 163.931 33.2299C164.363 33.3838 164.825 33.5068 165.319 33.5684C165.812 33.6299 166.305 33.6607 166.799 33.6607C167.569 33.6607 168.248 33.5991 168.803 33.5068C169.358 33.3838 169.882 33.1684 170.344 32.7992C170.776 32.4607 171.269 31.9069 171.824 31.1992C172.194 30.7685 172.41 30.5531 172.502 30.5531C172.657 30.5531 172.718 30.6146 172.718 30.7685C172.718 30.9223 172.687 31.1069 172.595 31.2915C172.502 31.4761 172.348 31.753 172.163 32.1223C171.762 32.8299 171.516 33.353 171.423 33.6915V33.753C171.331 34.0607 171.207 34.2761 171.022 34.4607C170.837 34.6145 170.467 34.7068 169.912 34.7068H166.089C165.041 34.7068 164.085 34.7068 163.284 34.676C162.174 34.676 161.434 34.676 161.002 34.676C160.601 34.6453 160.201 34.676 159.769 34.7068Z" fill="#706F6F"/>
<path d="M179.748 34.8914C179.255 34.7991 178.638 34.6453 177.929 34.3991C177.497 34.2761 177.281 34.2145 177.281 34.2145C176.973 34.1222 176.788 33.9684 176.665 33.7222C176.572 33.4761 176.511 33.1068 176.511 32.6761L176.48 32.4607C176.418 32.153 176.387 31.8453 176.356 31.5377C176.326 31.23 176.295 30.9531 176.295 30.7069C176.295 30.4915 176.326 30.3069 176.418 30.1223C176.48 29.9377 176.603 29.8454 176.726 29.8454C176.757 29.8454 176.819 29.9992 176.942 30.2762C177.065 30.6146 177.189 30.9531 177.312 31.2607C177.435 31.5684 177.62 31.8453 177.836 32.0915C178.237 32.5838 178.854 33.0145 179.655 33.353C180.457 33.7222 181.166 33.9068 181.752 33.9068C182.184 33.9068 182.646 33.8145 183.108 33.6607C183.571 33.5068 184.003 33.2607 184.403 32.953C184.804 32.6453 185.113 32.2453 185.359 31.7838C185.606 31.3223 185.729 30.7992 185.729 30.2146C185.729 29.63 185.606 29.107 185.39 28.6147C185.174 28.1224 184.866 27.6608 184.465 27.2608C184.064 26.8301 183.663 26.4609 183.201 26.1224C182.738 25.784 182.184 25.384 181.474 24.8917C180.734 24.3994 180.118 23.9686 179.655 23.5994C179.193 23.2302 178.73 22.8302 178.33 22.3994C177.929 21.9687 177.59 21.4764 177.343 20.9226C177.096 20.3995 176.973 19.7841 176.973 19.1688C176.973 18.5226 177.096 17.8765 177.312 17.2611C177.528 16.6457 177.867 16.0611 178.299 15.5689C178.73 15.0458 179.316 14.6458 179.994 14.3381C180.673 14.0304 181.474 13.8766 182.368 13.8766C182.708 13.8766 183.263 13.9381 184.003 14.092C184.712 14.2458 185.267 14.3073 185.606 14.3073C185.76 14.3073 185.945 14.2766 186.161 14.1843C186.407 14.092 186.623 14.0304 186.808 14.0304C186.901 14.0304 186.962 14.092 186.962 14.2458C186.962 14.6766 186.993 15.2919 187.086 16.0919C187.147 16.8611 187.178 17.415 187.178 17.8149C187.178 17.9073 187.147 17.9996 187.117 18.0919C187.086 18.1842 187.024 18.2457 186.993 18.2457C186.87 18.2457 186.685 17.9688 186.377 17.4457C186.222 17.138 186.068 16.8919 185.945 16.6765C185.822 16.4611 185.667 16.3073 185.513 16.1842C185.051 15.7842 184.496 15.4765 183.848 15.2919C183.201 15.1073 182.584 15.015 182.029 15.015C181.659 15.015 181.289 15.0766 180.919 15.2304C180.549 15.3842 180.21 15.5996 179.902 15.8458C179.594 16.1227 179.347 16.4304 179.162 16.7688C178.977 17.1073 178.885 17.4765 178.885 17.8457C178.885 18.338 178.977 18.7995 179.193 19.2303C179.409 19.6611 179.686 20.0918 180.056 20.4918C180.426 20.8918 180.827 21.2302 181.228 21.5379C181.629 21.8456 182.184 22.2764 182.923 22.7994C183.694 23.3533 184.342 23.8148 184.835 24.2148C185.328 24.6148 185.822 25.0455 186.253 25.5378C186.685 26.0301 187.055 26.5839 187.332 27.1685C187.61 27.7531 187.733 28.3993 187.764 29.107C187.764 29.8762 187.641 30.6146 187.363 31.3223C187.086 32.03 186.685 32.6761 186.13 33.2299C185.575 33.7838 184.897 34.2453 184.064 34.553C183.232 34.8914 182.276 35.0453 181.197 35.0453C180.765 35.0453 180.241 34.9837 179.748 34.8914Z" fill="#706F6F"/>
<path d="M208.359 32.153C208.853 33.4453 209.623 34.2761 210.641 34.676V34.8607C209.716 34.7068 208.791 34.6453 207.866 34.6453C206.879 34.6453 205.893 34.7068 204.875 34.8607V34.7068C204.875 34.5837 204.999 34.3376 205.214 34.0299C205.523 33.5991 205.677 33.2915 205.677 33.0761C205.677 32.9222 205.646 32.7684 205.615 32.5838C205.584 32.3992 205.523 32.2453 205.492 32.0915L203.519 26.707C202.224 26.584 201.114 26.5224 200.189 26.5224C198.925 26.5224 197.753 26.584 196.674 26.707L194.423 32.553C194.208 33.0761 194.115 33.4761 194.115 33.7222C194.115 34.0607 194.269 34.3991 194.578 34.7068V34.8607C193.899 34.7684 193.221 34.7068 192.543 34.7068C191.772 34.7068 191.032 34.7684 190.292 34.8607L190.415 34.7068C191.679 34.3068 192.635 33.4145 193.19 32.03L199.295 17.2919C199.356 17.138 199.356 16.9842 199.356 16.8611C199.356 16.3688 199.171 15.8765 198.801 15.3535C198.432 14.8304 197.969 14.3997 197.414 14.0304L197.352 13.8458C197.753 13.8766 198.216 13.9074 198.801 13.9381C199.387 13.9689 199.911 13.9689 200.374 13.9689H201.052L202.224 16.9227L208.359 32.153ZM202.995 25.3532L200.312 18.2457H200.251L197.352 25.3532V25.4763C198.247 25.5378 199.202 25.5378 200.158 25.5378C201.145 25.5378 202.1 25.5071 203.025 25.4763V25.3532H202.995Z" fill="#706F6F"/>
<path d="M238.05 13.8766C238.482 13.9689 238.821 13.9997 239.037 13.9997C239.438 13.9997 240.023 13.9689 240.794 13.9074C241.195 13.8766 241.503 13.8766 241.719 13.8459V14.0305C241.257 14.2766 240.918 14.6458 240.702 15.1689C240.486 15.692 240.363 16.3073 240.332 16.9842C240.301 17.3227 240.301 17.6919 240.27 18.0611C240.239 18.4303 240.239 18.9534 240.239 19.6303C240.208 20.4303 240.208 22.0918 240.208 24.6763C240.208 25.1686 240.208 26.0609 240.178 27.384C240.147 28.8608 240.147 29.9685 240.147 30.7377C240.147 31.9377 240.178 32.9223 240.208 33.6299C240.208 33.7838 240.208 33.9376 240.239 34.0607C240.27 34.4607 240.27 34.7376 240.27 34.8299C240.27 35.1376 240.208 35.3222 240.054 35.3222C239.962 35.3222 239.715 35.0761 239.283 34.5838L225.348 18.4919H225.193C225.163 19.2611 225.132 20.1534 225.132 21.1687C225.132 21.5995 225.132 22.2149 225.163 23.0148C225.163 23.5994 225.163 24.1225 225.163 24.6456C225.163 26.984 225.224 29.507 225.378 32.2146C225.409 32.7684 225.563 33.2607 225.81 33.6607C226.057 34.0607 226.427 34.3992 226.92 34.6145V34.8299C225.81 34.7376 224.885 34.7068 224.053 34.7068C223.714 34.7068 223.467 34.7068 223.313 34.7068C223.189 34.7068 222.974 34.7376 222.727 34.7376C222.634 34.7684 222.48 34.7684 222.295 34.7991V34.5838C222.727 34.3684 223.066 34.0607 223.344 33.6915C223.621 33.2915 223.744 32.8607 223.775 32.3684C223.806 30.6762 223.837 28.1224 223.837 24.7379C223.837 24.3071 223.837 23.4764 223.868 22.1533C223.899 21.0457 223.899 20.1226 223.899 19.4457C223.899 18.4303 223.868 17.5381 223.837 16.8304V16.615C223.775 16.0919 223.652 15.5997 223.436 15.1381C223.22 14.7074 222.85 14.3074 222.295 13.9382L222.234 13.7228C222.819 13.7843 223.282 13.8151 223.652 13.8459C224.022 13.8766 224.392 13.9074 224.762 13.9074L238.636 30.307H238.852C238.883 29.0455 238.883 27.1686 238.883 24.6763C238.883 23.3841 238.852 22.061 238.821 20.7072C238.79 19.3534 238.728 18.0611 238.667 16.7996C238.636 16.1227 238.544 15.5689 238.389 15.1381C238.235 14.7074 237.896 14.3074 237.341 13.9382V13.7228C237.464 13.7843 237.711 13.8151 238.05 13.8766Z" fill="#706F6F"/>
<path d="M259.602 14.615C260.927 15.1381 262.037 15.9073 262.962 16.8919C263.856 17.8765 264.565 18.9842 265.028 20.2764C265.49 21.5687 265.737 22.9533 265.737 24.4302C265.737 25.9686 265.46 27.3839 264.905 28.707C264.35 30.03 263.61 31.1685 262.623 32.1223C261.667 33.0761 260.527 33.8145 259.232 34.3376C257.937 34.8607 256.549 35.1068 255.131 35.1068C253.713 35.1068 252.325 34.8299 251.03 34.2761C249.735 33.7222 248.595 32.953 247.608 31.9684C246.622 30.9838 245.882 29.8454 245.327 28.5531C244.772 27.2609 244.494 25.8763 244.494 24.4609C244.494 23.0148 244.772 21.661 245.327 20.3687C245.882 19.0765 246.622 17.938 247.608 16.9534C248.595 15.9689 249.705 15.1996 251 14.6458C252.295 14.092 253.651 13.8151 255.1 13.8151C256.796 13.8151 258.276 14.092 259.602 14.615ZM251.955 15.6919C250.969 16.1227 250.136 16.7073 249.427 17.4765C248.718 18.2457 248.163 19.1688 247.762 20.2457C247.361 21.3226 247.176 22.5225 247.176 23.784C247.176 25.0763 247.361 26.3378 247.762 27.5378C248.163 28.7377 248.718 29.8146 249.427 30.7685C250.136 31.7223 251 32.4607 251.955 33.0146C252.942 33.5376 253.99 33.8145 255.1 33.8145C256.272 33.8145 257.351 33.6299 258.337 33.2299C259.324 32.8299 260.187 32.2761 260.958 31.5069C261.698 30.7685 262.284 29.8454 262.685 28.7993C263.086 27.7532 263.301 26.584 263.301 25.3225C263.301 23.7533 263.086 22.3071 262.685 21.0456C262.284 19.7841 261.698 18.6765 260.958 17.7842C260.218 16.8919 259.355 16.215 258.368 15.7535C257.382 15.2919 256.272 15.0458 255.131 15.0458C253.99 15.0766 252.942 15.2919 251.955 15.6919Z" fill="#706F6F"/>
<path d="M271.996 21.7225C271.502 20.5841 270.855 19.138 270.053 17.3534C269.93 17.0765 269.868 16.9227 269.837 16.8919L269.776 16.6765C269.498 16.0611 269.221 15.5688 268.943 15.1996C268.666 14.7996 268.173 14.4612 267.525 14.1227L267.463 13.9073C267.679 13.9381 267.803 13.9381 267.926 13.9689C268.974 14.0612 269.714 14.092 270.207 14.092C270.824 14.092 271.718 14.0612 272.89 13.9997L272.982 14.215C272.581 14.4612 272.396 14.8919 272.396 15.5381C272.396 16.0611 272.489 16.5842 272.674 17.1073C273.075 18.1842 273.506 19.2918 273.938 20.4303C274.37 21.5379 274.894 22.8302 275.48 24.2763L275.695 24.7994C276.158 25.9686 276.898 27.6301 277.854 29.8454C278.069 30.3377 278.224 30.7069 278.347 30.9531H278.594C278.933 30.1223 279.488 28.7685 280.228 26.9224L280.752 25.5994C281.06 24.7994 281.399 23.9071 281.769 22.9225C282.139 21.9379 282.571 20.7379 283.095 19.2611C283.403 18.3995 283.619 17.7226 283.804 17.2303C283.897 16.9534 283.989 16.6765 284.082 16.3996C284.143 16.1227 284.205 15.8458 284.205 15.5688C284.205 15.1996 284.113 14.8919 283.928 14.6458C283.743 14.3996 283.434 14.215 282.972 14.1227L283.033 13.9381C284.082 14.0304 284.945 14.092 285.654 14.092C286.055 14.092 286.672 14.0612 287.442 13.9997C287.874 13.9689 288.182 13.9689 288.398 13.9381L288.336 14.1227C287.751 14.3689 287.257 14.7381 286.857 15.2612C286.456 15.7842 286.055 16.3996 285.747 17.0765C285.346 17.938 284.945 18.8303 284.575 19.7226C284.205 20.6456 283.743 21.7841 283.188 23.1379L282.54 24.7378C282.263 25.384 281.831 26.3993 281.245 27.7839C280.721 29.0454 280.228 30.2146 279.765 31.2607C279.334 32.3069 278.84 33.5376 278.285 34.9222C278.193 35.1068 278.1 35.1991 277.977 35.1991C277.854 35.1991 277.73 35.076 277.638 34.8299C277.391 34.2145 277.083 33.4761 276.744 32.6453C276.405 31.8146 275.88 30.6146 275.171 29.0454C274.801 28.2147 274.462 27.4762 274.185 26.7993C273.876 26.1224 273.63 25.4763 273.352 24.8917C272.951 23.9379 272.52 22.861 271.996 21.7225Z" fill="#706F6F"/>
<path d="M292.561 34.8607V34.6453C292.992 34.4299 293.331 34.1222 293.609 33.753C293.886 33.353 294.01 32.9222 294.04 32.43C294.071 30.7377 294.102 28.1839 294.102 24.7994C294.102 23.5071 294.071 22.1841 294.04 20.8303C294.01 19.4764 293.948 18.1842 293.886 16.9227C293.856 16.3073 293.732 15.7842 293.547 15.3227C293.362 14.8612 292.992 14.4304 292.437 14.0612V13.8766C293.547 13.9689 294.441 14.0304 295.15 14.0304C295.551 14.0304 296.137 13.9997 296.877 13.9381C297.278 13.9074 297.586 13.9074 297.802 13.8766V14.0612C297.339 14.3073 297 14.6766 296.784 15.1996C296.569 15.7227 296.445 16.3381 296.415 17.015C296.384 17.3534 296.384 17.7226 296.353 18.0919C296.322 18.4611 296.322 18.9841 296.322 19.6611C296.291 20.461 296.291 22.1225 296.291 24.7071C296.291 27.0455 296.353 29.5685 296.507 32.2761C296.538 32.8299 296.692 33.3222 296.939 33.7222C297.185 34.1222 297.555 34.4607 298.049 34.676V34.8914C296.969 34.7991 296.014 34.7684 295.181 34.7684C294.349 34.7376 293.486 34.7684 292.561 34.8607Z" fill="#706F6F"/>
<path d="M304.122 34.7068C303.691 34.7376 303.136 34.7683 302.519 34.8299L302.303 34.8607V34.4607C302.519 34.3684 302.704 34.2145 302.92 33.9684C303.136 33.753 303.351 33.5068 303.536 33.1992C303.721 32.8915 303.876 32.6146 303.999 32.3069C304.122 31.9992 304.184 31.7223 304.184 31.4761C304.215 30.1839 304.246 29.107 304.246 28.2762C304.246 27.4455 304.246 26.2455 304.246 24.7071C304.246 23.4148 304.215 22.0918 304.184 20.7379C304.153 19.3841 304.091 18.0919 304.03 16.8304C303.999 16.3073 303.814 15.815 303.536 15.3535C303.228 14.8919 302.766 14.492 302.087 14.1535L302.026 13.8766L302.211 13.9074C302.981 13.9689 303.721 14.0304 304.4 14.092C305.078 14.1535 305.602 14.1535 305.941 14.1535C306.219 14.1535 306.589 14.1535 307.051 14.1227C307.514 14.092 308.099 14.092 308.778 14.0612L309.487 13.9997C310.72 13.9074 311.614 13.8766 312.169 13.8766C312.878 13.8766 313.495 13.9074 313.957 13.9689C314.42 14.0304 314.667 14.1843 314.667 14.3997C314.667 14.7689 314.697 15.2304 314.79 15.7535C314.852 16.1842 314.852 16.4919 314.852 16.7381C314.852 16.8919 314.79 16.9534 314.697 16.9534C314.605 16.9534 314.482 16.8304 314.358 16.615C314.297 16.4611 314.235 16.3381 314.173 16.2765C313.927 15.9073 313.464 15.5996 312.786 15.3535C312.108 15.1073 311.121 14.9843 309.857 14.9843C309.518 14.9843 308.994 15.015 308.254 15.0766C307.606 15.1381 307.113 15.1689 306.774 15.1689C306.681 15.4458 306.62 15.8765 306.589 16.4919L306.558 16.9534C306.527 17.6303 306.496 18.3995 306.496 19.2303C306.465 20.061 306.465 21.4456 306.465 23.4148C306.897 23.4148 307.483 23.4148 308.223 23.4456C309.024 23.4763 309.549 23.5071 309.857 23.5071C310.011 23.5071 310.165 23.5071 310.35 23.4763C310.628 23.4763 310.782 23.4763 310.843 23.4763C311.46 23.4456 311.984 23.3225 312.447 23.1379C312.909 22.9533 313.341 22.5841 313.711 22.0302H313.896C313.865 22.2764 313.865 22.4917 313.834 22.7379C313.803 23.0148 313.772 23.261 313.772 23.4456C313.742 23.6609 313.742 23.9071 313.742 24.1532C313.742 24.6148 313.742 24.9225 313.742 25.0763C313.742 25.2301 313.772 25.5686 313.803 26.0609H313.618C313.372 25.5994 313.002 25.2609 312.477 25.0455C311.953 24.8301 311.337 24.7071 310.658 24.6763C309.795 24.6148 308.408 24.584 306.527 24.584V24.6148C306.527 25.8147 306.558 26.8916 306.589 27.8455C306.62 28.7993 306.681 29.9992 306.743 31.4454C306.774 31.9069 306.928 32.2761 307.205 32.553C307.514 32.8607 307.853 33.0761 308.315 33.2299C308.747 33.3838 309.209 33.5068 309.703 33.5684C310.196 33.6299 310.689 33.6607 311.183 33.6607C311.953 33.6607 312.632 33.5991 313.187 33.5068C313.742 33.3838 314.266 33.1684 314.728 32.7992C315.16 32.4607 315.653 31.9069 316.208 31.1992C316.578 30.7685 316.794 30.5531 316.886 30.5531C317.041 30.5531 317.102 30.6146 317.102 30.7685C317.102 30.9223 317.071 31.1069 316.979 31.2915C316.886 31.4761 316.732 31.753 316.547 32.1223C316.146 32.8299 315.9 33.353 315.807 33.6915V33.753C315.715 34.0607 315.591 34.2761 315.406 34.4607C315.221 34.6145 314.852 34.7068 314.297 34.7068H310.473C309.425 34.7068 308.469 34.7068 307.668 34.676C306.558 34.676 305.818 34.676 305.386 34.676C304.955 34.6453 304.585 34.676 304.122 34.7068Z" fill="#706F6F"/>
<path d="M320.895 34.7684C320.401 34.7991 319.877 34.8299 319.353 34.8914L319.322 34.6145C319.538 34.5222 319.723 34.3376 319.939 34.1222C320.155 33.9068 320.34 33.6299 320.525 33.3222C320.71 33.0146 320.833 32.7069 320.956 32.3992C321.08 32.0915 321.111 31.8146 321.111 31.5684C321.141 30.2762 321.172 29.1993 321.172 28.3685C321.172 27.5378 321.172 26.3378 321.172 24.7994C321.172 23.5071 321.141 22.1841 321.111 20.8303C321.08 19.4764 321.018 18.1842 320.956 16.9227C320.926 16.3073 320.802 15.7842 320.617 15.3227C320.432 14.8612 320.062 14.4304 319.507 14.0612V13.8766C320.617 13.9689 321.511 14.0304 322.22 14.0304C322.621 14.0304 323.207 13.9997 323.978 13.9381C324.379 13.9074 324.687 13.9074 324.903 13.8766V14.0612C324.44 14.3073 324.101 14.6766 323.885 15.1996C323.67 15.7227 323.546 16.3381 323.515 17.015C323.485 17.3534 323.485 17.7226 323.454 18.0919C323.423 18.4611 323.423 18.9841 323.423 19.6611C323.392 20.461 323.392 22.1225 323.392 24.7071C323.392 25.907 323.423 26.9839 323.454 27.9378C323.485 28.8916 323.546 30.0916 323.608 31.5377C323.639 31.9992 323.731 32.3684 323.947 32.6761C324.163 32.9838 324.44 33.2299 324.749 33.3838C325.088 33.5376 325.458 33.6607 325.859 33.753C326.259 33.8145 326.722 33.8761 327.184 33.8761C327.863 33.8761 328.572 33.7838 329.312 33.5991C330.052 33.4145 330.668 33.1069 331.131 32.7376C331.408 32.4915 331.655 32.2453 331.871 31.9684C332.087 31.6915 332.302 31.3531 332.549 30.9838C332.827 30.5223 333.012 30.2762 333.135 30.2762C333.197 30.2762 333.258 30.3069 333.289 30.3685C333.32 30.43 333.32 30.5223 333.32 30.5838C333.32 30.7377 333.258 30.9531 333.166 31.1992C333.073 31.4454 332.919 31.7838 332.765 32.153C332.457 32.8915 332.241 33.4145 332.148 33.7222C332.087 33.9991 331.963 34.2453 331.809 34.4299C331.655 34.6145 331.408 34.7376 331.162 34.7376C331.1 34.7376 330.761 34.7684 330.175 34.7991C329.127 34.8607 328.387 34.8914 327.893 34.8914C327.308 34.8914 326.814 34.8914 326.352 34.8607C325.889 34.8299 325.365 34.8299 324.81 34.7991C323.793 34.7376 322.93 34.7376 322.251 34.7376C321.85 34.7068 321.419 34.7068 320.895 34.7684Z" fill="#706F6F"/>
<path d="M337.266 34.7684C336.773 34.7991 336.249 34.8299 335.725 34.8914L335.694 34.6145C335.91 34.5222 336.095 34.3376 336.31 34.1222C336.526 33.9068 336.711 33.6299 336.896 33.3222C337.081 33.0146 337.205 32.7069 337.328 32.3992C337.451 32.0915 337.482 31.8146 337.482 31.5684C337.513 30.2762 337.544 29.1993 337.544 28.3685C337.544 27.5378 337.544 26.3378 337.544 24.7994C337.544 23.5071 337.513 22.1841 337.482 20.8303C337.451 19.4764 337.39 18.1842 337.328 16.9227C337.297 16.3073 337.174 15.7842 336.989 15.3227C336.804 14.8612 336.434 14.4304 335.879 14.0612V13.8766C336.989 13.9689 337.883 14.0304 338.592 14.0304C338.993 14.0304 339.579 13.9997 340.349 13.9381C340.75 13.9074 341.059 13.9074 341.274 13.8766V14.0612C340.812 14.3073 340.473 14.6766 340.257 15.1996C340.041 15.7227 339.918 16.3381 339.887 17.015C339.856 17.3534 339.856 17.7226 339.825 18.0919C339.794 18.4611 339.794 18.9841 339.794 19.6611C339.764 20.461 339.764 22.1225 339.764 24.7071C339.764 25.907 339.794 26.9839 339.825 27.9378C339.856 28.8916 339.918 30.0916 339.979 31.5377C340.01 31.9992 340.103 32.3684 340.319 32.6761C340.534 32.9838 340.812 33.2299 341.12 33.3838C341.459 33.5376 341.829 33.6607 342.23 33.753C342.631 33.8145 343.093 33.8761 343.556 33.8761C344.234 33.8761 344.943 33.7838 345.683 33.5991C346.423 33.4145 347.04 33.1069 347.502 32.7376C347.78 32.4915 348.026 32.2453 348.242 31.9684C348.458 31.6915 348.674 31.3531 348.921 30.9838C349.198 30.5223 349.383 30.2762 349.506 30.2762C349.568 30.2762 349.63 30.3069 349.66 30.3685C349.691 30.43 349.691 30.5223 349.691 30.5838C349.691 30.7377 349.63 30.9531 349.537 31.1992C349.445 31.4454 349.291 31.7838 349.136 32.153C348.828 32.8915 348.612 33.4145 348.52 33.7222C348.458 33.9991 348.335 34.2453 348.181 34.4299C348.026 34.6145 347.78 34.7376 347.533 34.7376C347.471 34.7376 347.132 34.7684 346.547 34.7991C345.498 34.8607 344.758 34.8914 344.265 34.8914C343.679 34.8914 343.186 34.8914 342.723 34.8607C342.261 34.8299 341.737 34.8299 341.182 34.7991C340.164 34.7376 339.301 34.7376 338.623 34.7376C338.222 34.7068 337.79 34.7068 337.266 34.7684Z" fill="#706F6F"/>
<path d="M366.864 14.615C368.19 15.1381 369.3 15.9073 370.225 16.8919C371.119 17.8765 371.828 18.9842 372.291 20.2764C372.753 21.5687 373 22.9533 373 24.4302C373 25.9686 372.722 27.3839 372.167 28.707C371.612 30.03 370.872 31.1685 369.886 32.1223C368.93 33.0761 367.789 33.8145 366.494 34.3376C365.199 34.8607 363.812 35.1068 362.363 35.1068C360.945 35.1068 359.557 34.8299 358.262 34.2761C356.967 33.7222 355.827 32.953 354.84 31.9684C353.853 30.9838 353.113 29.8454 352.559 28.5531C352.004 27.2609 351.726 25.8763 351.726 24.4609C351.726 23.0148 352.004 21.661 352.559 20.3687C353.113 19.0765 353.853 17.938 354.84 16.9534C355.827 15.9689 356.937 15.1996 358.232 14.6458C359.526 14.092 360.883 13.8151 362.332 13.8151C364.028 13.8151 365.539 14.092 366.864 14.615ZM359.218 15.6919C358.231 16.1227 357.399 16.7073 356.69 17.4765C355.981 18.2457 355.426 19.1688 355.025 20.2457C354.624 21.3226 354.439 22.5225 354.439 23.784C354.439 25.0763 354.624 26.3378 355.025 27.5378C355.426 28.7377 355.981 29.8146 356.69 30.7685C357.399 31.7223 358.262 32.4607 359.218 33.0146C360.205 33.5376 361.253 33.8145 362.363 33.8145C363.535 33.8145 364.614 33.6299 365.6 33.2299C366.587 32.8299 367.45 32.2761 368.221 31.5069C368.961 30.7685 369.547 29.8454 369.947 28.7993C370.348 27.7532 370.564 26.584 370.564 25.3225C370.564 23.7533 370.348 22.3071 369.947 21.0456C369.547 19.7841 368.961 18.6765 368.221 17.7842C367.481 16.8919 366.618 16.215 365.631 15.7535C364.644 15.2919 363.535 15.0458 362.394 15.0458C361.253 15.0766 360.174 15.2919 359.218 15.6919Z" fill="#706F6F"/>
<path d="M110.13 54.9832C109.853 55.3525 109.544 55.6294 109.205 55.7832C108.866 55.9371 108.558 56.0294 108.218 56.0294C107.756 56.0294 107.355 55.9371 107.016 55.7832C106.646 55.6294 106.338 55.414 106.091 55.1063C105.844 54.8294 105.629 54.4909 105.474 54.091C105.32 53.691 105.259 53.2602 105.259 52.7987C105.259 52.3679 105.32 51.9679 105.474 51.5987C105.629 51.2295 105.814 50.891 106.091 50.6141C106.338 50.3372 106.646 50.1218 107.016 49.968C107.386 49.8141 107.787 49.7218 108.218 49.7218C108.527 49.7218 108.804 49.7834 109.113 49.8757C109.39 49.968 109.698 50.2141 110.007 50.5526L110.099 50.6757L110.222 50.5833L111.641 49.5372L111.517 49.4141C111.055 48.8911 110.531 48.4911 109.976 48.2449C109.421 48.0296 108.835 47.9065 108.188 47.9065C107.478 47.9065 106.8 48.0296 106.184 48.2449C105.567 48.4911 105.043 48.8295 104.611 49.2603C104.179 49.6911 103.809 50.2141 103.563 50.8295C103.316 51.4449 103.193 52.1218 103.193 52.8602C103.193 53.5987 103.316 54.2448 103.563 54.8602C103.809 55.4755 104.149 55.9678 104.611 56.3986C105.043 56.8293 105.567 57.1678 106.184 57.3832C106.8 57.6293 107.448 57.7216 108.188 57.7216C108.866 57.7216 109.544 57.5986 110.13 57.3216C110.747 57.0447 111.271 56.614 111.702 56.0294L111.795 55.9063L110.192 54.7679L110.13 54.9832Z" fill="#706F6F"/>
<path d="M128.629 48.1834H126.687V48.3373V57.5985H132.514V55.814H128.629V48.1834Z" fill="#706F6F"/>
<path d="M147.467 48.3373V57.5985H149.44V48.1834H147.467V48.3373Z" fill="#706F6F"/>
<path d="M171.824 54.5832L167.631 48.1834H165.226V48.3373V57.5985H167.199V50.9833L171.454 57.5985H173.766V48.1834H171.824V54.5832Z" fill="#706F6F"/>
<path d="M189.583 48.3373V57.5985H191.556V48.1834H189.583V48.3373Z" fill="#706F6F"/>
<path d="M213.755 54.9832C213.477 55.3525 213.169 55.6294 212.83 55.7832C212.491 55.9371 212.182 56.0294 211.843 56.0294C211.381 56.0294 210.98 55.9371 210.641 55.7832C210.271 55.6294 209.962 55.414 209.716 55.1063C209.469 54.8294 209.253 54.4909 209.099 54.091C208.945 53.691 208.883 53.2602 208.883 52.7987C208.883 52.3679 208.945 51.9679 209.099 51.5987C209.253 51.2295 209.438 50.891 209.716 50.6141C209.962 50.3372 210.271 50.1218 210.641 49.968C211.011 49.8141 211.412 49.7218 211.843 49.7218C212.151 49.7218 212.429 49.7834 212.737 49.8757C213.015 49.968 213.323 50.2141 213.631 50.5526L213.724 50.6757L213.847 50.5833L215.265 49.5372L215.142 49.4141C214.68 48.8911 214.156 48.4911 213.601 48.2449C213.046 48.0296 212.46 47.9065 211.812 47.9065C211.103 47.9065 210.425 48.0296 209.808 48.2449C209.192 48.4911 208.668 48.8295 208.236 49.2603C207.804 49.6911 207.434 50.2141 207.188 50.8295C206.941 51.4449 206.818 52.1218 206.818 52.8602C206.818 53.5987 206.941 54.2448 207.188 54.8602C207.434 55.4755 207.773 55.9678 208.236 56.3986C208.668 56.8293 209.192 57.1678 209.808 57.3832C210.425 57.6293 211.072 57.7216 211.812 57.7216C212.491 57.7216 213.169 57.5986 213.755 57.3216C214.371 57.0447 214.895 56.614 215.327 56.0294L215.42 55.9063L213.816 54.7679L213.755 54.9832Z" fill="#706F6F"/>
<path d="M234.936 48.1834H233.302L233.271 48.2757L229.201 57.5985H231.39L232.223 55.5063H235.954L236.817 57.5985H239.037L234.936 48.1834ZM235.244 53.814H232.901L234.073 50.7372L235.244 53.814Z" fill="#706F6F"/>
<path d="M149.348 46.645L150.92 45.045H148.7L148.639 45.1066L147.59 46.645H149.348Z" fill="#706F6F"/>
</g>
<defs>
<clipPath id="clip0">
<rect width="373" height="71.3828" fill="white"/>
</clipPath>
</defs>
</svg>
