<svg width="20" height="28" viewBox="0 0 20 28" fill="none" xmlns="http://www.w3.org/2000/svg">
<path d="M10 0.921387C4.486 0.921387 0 5.40739 0 10.9214C0 14.481 1.08282 15.9085 6.2862 22.7681C7.18944 23.9588 8.21323 25.3084 9.38462 26.8701C9.5299 27.0638 9.7579 27.1778 10.0001 27.1778C10.2422 27.1778 10.4702 27.0637 10.6154 26.87C11.7799 25.3167 12.7993 23.9722 13.6987 22.786C18.9146 15.9065 20 14.4748 20 10.9214C20 5.40739 15.514 0.921387 10 0.921387ZM12.4728 21.8565C11.7341 22.8308 10.9147 23.9116 9.99985 25.1277C9.07877 23.9038 8.25467 22.8174 7.5119 21.8382C2.45046 15.1658 1.53846 13.9635 1.53846 10.9214C1.53846 6.25569 5.33431 2.45985 10 2.45985C14.6657 2.45985 18.4615 6.25569 18.4615 10.9214C18.4615 13.9575 17.5472 15.1635 12.4728 21.8565Z" fill="#706F6F"/>
<path d="M9.99985 5.53662C7.03077 5.53662 4.61523 7.95216 4.61523 10.9212C4.61523 13.8903 7.03077 16.3059 9.99985 16.3059C12.9689 16.3059 15.3845 13.8903 15.3845 10.9212C15.3845 7.95216 12.9689 5.53662 9.99985 5.53662ZM9.99985 14.7674C7.87908 14.7674 6.1537 13.042 6.1537 10.9212C6.1537 8.80047 7.87908 7.07508 9.99985 7.07508C12.1206 7.07508 13.846 8.80047 13.846 10.9212C13.846 13.042 12.1206 14.7674 9.99985 14.7674Z" fill="#706F6F"/>
</svg>
