<svg width="22" height="16" viewBox="0 0 22 16" fill="none" xmlns="http://www.w3.org/2000/svg">
<path fill-rule="evenodd" clip-rule="evenodd" d="M19.5962 0.461607C20.5451 0.717676 21.286 1.45948 21.5408 2.40871C22 4.125 22 7.70982 22 7.70982C22 7.70982 22 11.2946 21.5408 13.0109C21.2879 13.9587 20.544 14.7051 19.5962 14.958C17.8799 15.4196 11 15.4196 11 15.4196C11 15.4196 4.12009 15.4196 2.40379 14.958C1.45848 14.7051 0.712054 13.9587 0.459152 13.0109C0 11.2946 0 7.70982 0 7.70982C0 7.70982 0 4.125 0.459152 2.40625C0.713209 1.45655 1.45442 0.714407 2.40379 0.459152C4.12009 0 11 0 11 0C11 0 17.8799 0 19.5962 0.461607ZM8.81494 4.41986V11.0002L14.5114 7.68549L8.81494 4.41986Z" fill="#C8A97B"/>
</svg>
