<svg width="20" height="20" viewBox="0 0 20 20" fill="none" xmlns="http://www.w3.org/2000/svg">
<path fill-rule="evenodd" clip-rule="evenodd" d="M19.9993 9.49468C19.9991 9.6629 19.9989 9.83126 19.9989 9.99981C19.9989 10.1872 19.9992 10.3743 19.9994 10.5613L19.9994 10.5646C20.0012 11.7544 20.003 12.9373 19.9338 14.1275C19.8563 15.7286 19.4935 17.147 18.3203 18.3203C17.1495 19.491 15.7286 19.8563 14.1275 19.9338C12.9174 20.0019 11.715 20.0006 10.5051 19.9993H10.5051H10.5049C10.3367 19.9991 10.1684 19.9989 9.99981 19.9989C9.8316 19.9989 9.66355 19.9991 9.49559 19.9993H9.49547H9.49545C8.28715 20.0006 7.08445 20.0019 5.8721 19.9338C4.27105 19.8563 2.85262 19.4935 1.67935 18.3203C0.508578 17.1495 0.143338 15.7286 0.0657868 14.1275C-0.00230194 12.9173 -0.000967509 11.7129 0.000371766 10.5041C0.000557883 10.3361 0.000744094 10.168 0.000744094 9.99981C0.000744094 9.83161 0.000557831 9.66355 0.000371688 9.4956C-0.00096756 8.28725 -0.00230061 7.0845 0.0657868 5.8721C0.143338 4.27105 0.506076 2.85262 1.67935 1.67935C2.85012 0.508578 4.27105 0.143338 5.8721 0.0657868C7.08226 -0.00229852 8.28471 -0.000967642 9.49469 0.000371565C9.6629 0.000557749 9.83126 0.000744094 9.99981 0.000744094C10.168 0.000744094 10.3361 0.000557831 10.504 0.000371688C11.7124 -0.00096756 12.9151 -0.0023006 14.1275 0.0657868C15.7286 0.143338 17.147 0.506076 18.3203 1.67935C19.491 2.85012 19.8563 4.27105 19.9338 5.8721C20.0019 7.0822 20.0006 8.2846 19.9993 9.49451V9.49454V9.49468ZM6.66248 10.0002C6.66248 8.16401 8.16096 6.66553 9.99717 6.66553C11.8334 6.66553 13.3319 8.16401 13.3319 10.0002C13.3319 11.8364 11.8334 13.3349 9.99717 13.3349C8.16096 13.3349 6.66248 11.8364 6.66248 10.0002ZM9.9972 15.1301C7.15784 15.1301 4.86633 12.8386 4.86633 9.99922C4.86633 7.15985 7.15784 4.86835 9.9972 4.86835C12.8366 4.86835 15.1281 7.15985 15.1281 9.99922C15.1281 12.8386 12.8366 15.1301 9.9972 15.1301ZM14.1399 4.65947C14.1399 5.3224 14.6752 5.85776 15.3382 5.85776C15.6561 5.85815 15.9611 5.73204 16.1859 5.50723C16.4107 5.28242 16.5369 4.9774 16.5365 4.65947C16.5365 3.99653 16.0011 3.46118 15.3382 3.46118C14.6752 3.46118 14.1399 3.99653 14.1399 4.65947Z" fill="#C8A97B"/>
</svg>
