<svg width="23" height="16" viewBox="0 0 23 16" fill="none" xmlns="http://www.w3.org/2000/svg">
<path d="M1 9C0.447715 9 5.33895e-09 8.55228 1.19249e-08 8C1.85108e-08 7.44771 0.447715 7 1 7L19 7C19.5523 7 20 7.44772 20 8C20 8.55228 19.5523 9 19 9L1 9Z" fill="white"/>
<path d="M15.0325 15.3225C14.6583 15.6967 14.0516 15.6967 13.6774 15.3225C13.3033 14.9483 13.3033 14.3416 13.6774 13.9674L20.2602 7.38468C20.6344 7.01048 21.241 7.01049 21.6152 7.38468C21.9894 7.75887 21.9894 8.36555 21.6152 8.73974L15.0325 15.3225Z" fill="white"/>
<path d="M13.6775 2.033C13.3033 1.65881 13.3033 1.05213 13.6775 0.677936C14.0517 0.303745 14.6584 0.303745 15.0326 0.677936L21.6153 7.26066C21.9895 7.63485 21.9895 8.24154 21.6153 8.61573C21.2411 8.98992 20.6344 8.98992 20.2603 8.61573L13.6775 2.033Z" fill="white"/>
</svg>
