<svg width="43" height="16" viewBox="0 0 43 16" fill="none" xmlns="http://www.w3.org/2000/svg">
<rect y="9" width="2" height="40" rx="1" transform="rotate(-90 0 9)" fill="#C8A97B"/>
<path d="M35.0325 15.3225C34.6583 15.6967 34.0516 15.6967 33.6774 15.3225C33.3033 14.9483 33.3033 14.3416 33.6774 13.9674L40.2602 7.38468C40.6344 7.01048 41.241 7.01049 41.6152 7.38468C41.9894 7.75887 41.9894 8.36555 41.6152 8.73974L35.0325 15.3225Z" fill="#C8A97B"/>
<path d="M33.6775 2.033C33.3033 1.65881 33.3033 1.05213 33.6775 0.677936C34.0517 0.303745 34.6584 0.303745 35.0326 0.677936L41.6153 7.26066C41.9895 7.63485 41.9895 8.24154 41.6153 8.61573C41.2411 8.98992 40.6344 8.98992 40.2603 8.61573L33.6775 2.033Z" fill="#C8A97B"/>
</svg>
