<svg width="43" height="17" viewBox="0 0 43 17" fill="none" xmlns="http://www.w3.org/2000/svg">
<rect width="2" height="40" rx="1" transform="matrix(4.37114e-08 -1 -1 -4.37114e-08 42.75 9.6499)" fill="#B8623D"/>
<path d="M7.717 15.9724C8.09119 16.3466 8.69787 16.3466 9.07206 15.9724C9.44626 15.5982 9.44626 14.9915 9.07206 14.6173L2.48934 8.03458C2.11515 7.66039 1.50847 7.66039 1.13427 8.03458C0.760083 8.40877 0.760083 9.01545 1.13427 9.38964L7.717 15.9724Z" fill="#B8623D"/>
<path d="M9.07247 2.68241C9.44666 2.30822 9.44666 1.70154 9.07247 1.32735C8.69828 0.953159 8.09159 0.953159 7.7174 1.32735L1.13468 7.91008C0.760484 8.28427 0.760485 8.89095 1.13468 9.26514C1.50887 9.63933 2.11555 9.63933 2.48974 9.26514L9.07247 2.68241Z" fill="#B8623D"/>
</svg>
