<svg width="43" height="17" viewBox="0 0 43 17" fill="none" xmlns="http://www.w3.org/2000/svg">
<rect y="9.6499" width="2" height="40" rx="1" transform="rotate(-90 0 9.6499)" fill="#B8623D"/>
<path d="M35.033 15.9724C34.6588 16.3466 34.0521 16.3466 33.6779 15.9724C33.3037 15.5982 33.3037 14.9915 33.6779 14.6173L40.2607 8.03458C40.6349 7.66039 41.2415 7.66039 41.6157 8.03458C41.9899 8.40877 41.9899 9.01545 41.6157 9.38964L35.033 15.9724Z" fill="#B8623D"/>
<path d="M33.6775 2.68241C33.3033 2.30822 33.3033 1.70154 33.6775 1.32735C34.0517 0.953159 34.6584 0.953159 35.0326 1.32735L41.6153 7.91008C41.9895 8.28427 41.9895 8.89095 41.6153 9.26514C41.2411 9.63933 40.6344 9.63933 40.2603 9.26514L33.6775 2.68241Z" fill="#B8623D"/>
</svg>
