<svg width="10" height="16" viewBox="0 0 10 16" fill="none" xmlns="http://www.w3.org/2000/svg">
<path d="M2.03251 15.3225C1.65832 15.6967 1.05164 15.6967 0.677448 15.3225C0.303257 14.9483 0.303257 14.3416 0.677447 13.9674L7.26017 7.38468C7.63436 7.01048 8.24105 7.01049 8.61524 7.38468C8.98943 7.75887 8.98943 8.36555 8.61524 8.73974L2.03251 15.3225Z" fill="white"/>
<path d="M0.677532 2.03251C0.303341 1.65832 0.303342 1.05164 0.677533 0.677448C1.05172 0.303257 1.65841 0.303257 2.0326 0.677447L8.61532 7.26017C8.98952 7.63436 8.98951 8.24105 8.61532 8.61524C8.24113 8.98943 7.63445 8.98943 7.26026 8.61524L0.677532 2.03251Z" fill="white"/>
</svg>
