<svg width="31" height="31" viewBox="0 0 31 31" fill="none" xmlns="http://www.w3.org/2000/svg">
<path fill-rule="evenodd" clip-rule="evenodd" d="M25.6312 5.22207C22.8081 2.46541 19.0576 0.944092 15.063 0.944092C6.82982 0.944092 0.130169 7.48618 0.126102 15.5258C0.126102 18.0957 0.813558 20.6061 2.11932 22.8146L0 30.3696L7.91999 28.3438C10.1003 29.5036 12.5573 30.1193 15.059 30.1193H15.0671C23.3003 30.1193 30 23.5772 30.004 15.5377C30 11.641 28.4501 7.97475 25.6312 5.22207ZM15.063 27.6566H15.059C12.8298 27.6566 10.6454 27.0727 8.74168 25.9685L8.29016 25.7063L3.58779 26.9059L4.84067 22.4333L4.54372 21.9765C3.29898 20.046 2.64406 17.8177 2.64406 15.5258C2.64813 8.84464 8.22101 3.40681 15.0671 3.40681C18.3823 3.40681 21.5023 4.66994 23.8454 6.96186C26.1884 9.25377 27.4779 12.2964 27.4779 15.5377C27.4739 22.2188 21.9051 27.6566 15.063 27.6566ZM21.8725 18.5763C21.4983 18.3936 19.6637 17.5118 19.322 17.3926C18.9803 17.2695 18.7322 17.2099 18.484 17.5754C18.2359 17.9408 17.52 18.7591 17.3003 19.0053C17.0807 19.2476 16.8651 19.2794 16.4908 19.0967C16.1166 18.914 14.9166 18.5287 13.4888 17.2894C12.3783 16.3241 11.6298 15.1285 11.4142 14.7671C11.1946 14.4016 11.3898 14.207 11.5769 14.0243C11.7437 13.8614 11.9512 13.5993 12.1383 13.3848C12.3254 13.1703 12.3864 13.0193 12.5125 12.777C12.6386 12.5347 12.5735 12.3202 12.48 12.1375C12.3864 11.9548 11.642 10.1634 11.3288 9.43252C11.0278 8.72151 10.7186 8.81684 10.4908 8.80889C10.2752 8.79698 10.023 8.79698 9.7749 8.79698C9.52677 8.79698 9.11999 8.88834 8.77829 9.25377C8.4366 9.61921 7.47253 10.501 7.47253 12.2924C7.47253 14.0839 8.81084 15.8197 8.99795 16.062C9.18507 16.3043 11.6298 19.9864 15.3722 21.5634C16.263 21.9407 16.9586 22.1632 17.4996 22.33C18.3946 22.608 19.2081 22.5683 19.8508 22.473C20.5668 22.3697 22.0596 21.5912 22.3688 20.7411C22.6779 19.8911 22.6779 19.1602 22.5884 19.0093C22.4949 18.8504 22.2468 18.7591 21.8725 18.5763Z" fill="white"/>
</svg>
