<svg width="26" height="26" viewBox="0 0 26 26" fill="none" xmlns="http://www.w3.org/2000/svg">
<path d="M12.1596 0.204988C5.62122 0.521865 0.462747 6.02238 0.480515 12.629C0.486437 14.6438 0.966158 16.5451 1.81899 18.2192L0.516049 24.6105C0.44498 24.9573 0.752948 25.2562 1.09645 25.1785L7.29136 23.6958C8.88451 24.4969 10.6731 24.9573 12.5683 24.9872C19.2548 25.0888 24.8278 19.7318 25.0351 12.9877C25.2602 5.75931 19.3495 -0.135805 12.1596 0.204988ZM19.5627 19.4568C17.7445 21.2923 15.3341 22.3027 12.7637 22.3027C11.2594 22.3027 9.82026 21.9619 8.48178 21.2923L7.6171 20.8558L3.81487 21.7646L4.6144 17.8425L4.18798 16.9995C3.49505 15.6303 3.14563 14.1476 3.14563 12.5931C3.14563 9.99829 4.14653 7.56491 5.96473 5.72941C7.76516 3.91185 10.2171 2.8835 12.7637 2.8835C15.3341 2.8835 17.7445 3.89392 19.5627 5.72941C21.3809 7.56491 22.3818 9.99829 22.3818 12.5931C22.3818 15.164 21.3632 17.6392 19.5627 19.4568Z" fill="#706F6F"/>
<path d="M18.7215 15.2836L16.3407 14.596C16.0268 14.5064 15.6892 14.5961 15.4642 14.8292L14.8838 15.4271C14.6409 15.6782 14.2678 15.7619 13.9421 15.6304C12.8168 15.17 10.4478 13.0475 9.84373 11.9833C9.67197 11.6784 9.69566 11.2957 9.91479 11.0147L10.4241 10.3511C10.6255 10.094 10.667 9.74125 10.5307 9.44231L9.52983 7.1584C9.29293 6.60835 8.6 6.4529 8.14397 6.83555C7.48066 7.40353 6.69297 8.26448 6.59821 9.22109C6.42646 10.9011 7.14308 13.0236 9.84965 15.5706C12.9708 18.5122 15.476 18.9008 17.0988 18.5062C18.0227 18.279 18.763 17.3762 19.2249 16.6348C19.5447 16.1147 19.2901 15.445 18.7215 15.2836Z" fill="#706F6F"/>
</svg>
